<mxfile host="Electron" modified="2024-04-20T22:11:55.353Z" agent="Mozilla/5.0 (Windows NT 10.0; Win64; x64) AppleWebKit/537.36 (KHTML, like Gecko) draw.io/24.2.5 Chrome/120.0.6099.109 Electron/28.1.0 Safari/537.36" etag="zjAyeqiVGMBI5-FsLZT7" version="24.2.5" type="device" pages="5">
  <diagram name="Use Case Diagram" id="HRDbC0v-QL58-g_o1da6">
    <mxGraphModel dx="1418" dy="797" grid="1" gridSize="10" guides="1" tooltips="1" connect="1" arrows="1" fold="1" page="1" pageScale="1" pageWidth="850" pageHeight="1100" math="0" shadow="0">
      <root>
        <mxCell id="0" />
        <mxCell id="1" parent="0" />
        <mxCell id="lq5DNbu_8mVxC_UeuH79-1" value="&lt;p style=&quot;line-height:1.38;margin-top:0pt;margin-bottom:0pt;&quot; dir=&quot;ltr&quot;&gt;&lt;/p&gt;&lt;p style=&quot;line-height:1.38;margin-top:0pt;margin-bottom:0pt;&quot; dir=&quot;ltr&quot;&gt;&lt;/p&gt;&lt;div&gt;&lt;/div&gt;&lt;span id=&quot;docs-internal-guid-705e0976-7fff-efcc-c61b-261b7dbb9d03&quot;&gt;&lt;font color=&quot;#000000&quot;&gt;&lt;span style=&quot;font-size: 11pt; font-family: Arial, sans-serif; background-color: transparent; font-weight: 700; font-variant-numeric: normal; font-variant-east-asian: normal; font-variant-alternates: normal; font-variant-position: normal; vertical-align: baseline; white-space-collapse: preserve;&quot;&gt;Use Case Diagram (10 points)&lt;/span&gt;&lt;span style=&quot;font-size: 11pt; font-family: Arial, sans-serif; background-color: transparent; font-variant-numeric: normal; font-variant-east-asian: normal; font-variant-alternates: normal; font-variant-position: normal; vertical-align: baseline; white-space-collapse: preserve;&quot;&gt;: Reflect on the use cases and the associated actors of the system.&lt;/span&gt;&lt;/font&gt;&lt;/span&gt;&lt;br&gt;&lt;p style=&quot;font-size: 22px;&quot;&gt;&lt;/p&gt;&lt;font style=&quot;font-size: 22px;&quot;&gt;&lt;span id=&quot;docs-internal-guid-4736cb21-7fff-454d-ffdd-ce9de3d9f626&quot;&gt;&lt;/span&gt;&lt;/font&gt;" style="rounded=0;whiteSpace=wrap;html=1;" parent="1" vertex="1">
          <mxGeometry x="10" y="80" width="830" height="90" as="geometry" />
        </mxCell>
        <mxCell id="5bMXv3uLhK97KtnWlhL0-1" value="&lt;div&gt;Customer&lt;/div&gt;" style="shape=umlActor;verticalLabelPosition=bottom;verticalAlign=top;html=1;" parent="1" vertex="1">
          <mxGeometry x="40" y="482" width="110" height="190" as="geometry" />
        </mxCell>
        <mxCell id="nHeZbiyVeFCBfAyv0oCI-2" value="Register Account" style="ellipse;whiteSpace=wrap;html=1;" parent="1" vertex="1">
          <mxGeometry x="260" y="220" width="120" height="80" as="geometry" />
        </mxCell>
        <mxCell id="nHeZbiyVeFCBfAyv0oCI-5" value="&lt;div style=&quot;&quot;&gt;Name, Password, Pnone Number, email, address.&lt;/div&gt;" style="ellipse;whiteSpace=wrap;html=1;align=center;" parent="1" vertex="1">
          <mxGeometry x="510" y="190" width="120" height="105" as="geometry" />
        </mxCell>
        <mxCell id="nHeZbiyVeFCBfAyv0oCI-6" value="User Name, Passwrod." style="ellipse;whiteSpace=wrap;html=1;" parent="1" vertex="1">
          <mxGeometry x="510" y="310" width="120" height="80" as="geometry" />
        </mxCell>
        <mxCell id="nHeZbiyVeFCBfAyv0oCI-7" value="Login" style="ellipse;whiteSpace=wrap;html=1;" parent="1" vertex="1">
          <mxGeometry x="260" y="310" width="120" height="80" as="geometry" />
        </mxCell>
        <mxCell id="nHeZbiyVeFCBfAyv0oCI-8" value="Browse Items" style="ellipse;whiteSpace=wrap;html=1;" parent="1" vertex="1">
          <mxGeometry x="270" y="402" width="120" height="80" as="geometry" />
        </mxCell>
        <mxCell id="nHeZbiyVeFCBfAyv0oCI-13" value="" style="endArrow=classic;html=1;rounded=0;entryX=0;entryY=0.5;entryDx=0;entryDy=0;exitX=1;exitY=0.3333333333333333;exitDx=0;exitDy=0;exitPerimeter=0;" parent="1" source="5bMXv3uLhK97KtnWlhL0-1" target="nHeZbiyVeFCBfAyv0oCI-2" edge="1">
          <mxGeometry width="50" height="50" relative="1" as="geometry">
            <mxPoint x="150" y="502" as="sourcePoint" />
            <mxPoint x="200" y="452" as="targetPoint" />
          </mxGeometry>
        </mxCell>
        <mxCell id="nHeZbiyVeFCBfAyv0oCI-16" value="" style="endArrow=classic;html=1;rounded=0;exitX=1;exitY=0.3333333333333333;exitDx=0;exitDy=0;exitPerimeter=0;" parent="1" source="5bMXv3uLhK97KtnWlhL0-1" target="nHeZbiyVeFCBfAyv0oCI-7" edge="1">
          <mxGeometry width="50" height="50" relative="1" as="geometry">
            <mxPoint x="160" y="672" as="sourcePoint" />
            <mxPoint x="210" y="622" as="targetPoint" />
          </mxGeometry>
        </mxCell>
        <mxCell id="nHeZbiyVeFCBfAyv0oCI-17" value="" style="endArrow=classic;html=1;rounded=0;entryX=0;entryY=0.5;entryDx=0;entryDy=0;exitX=1;exitY=0.3333333333333333;exitDx=0;exitDy=0;exitPerimeter=0;" parent="1" source="5bMXv3uLhK97KtnWlhL0-1" target="nHeZbiyVeFCBfAyv0oCI-8" edge="1">
          <mxGeometry width="50" height="50" relative="1" as="geometry">
            <mxPoint x="100" y="672" as="sourcePoint" />
            <mxPoint x="150" y="622" as="targetPoint" />
          </mxGeometry>
        </mxCell>
        <mxCell id="nHeZbiyVeFCBfAyv0oCI-19" value="Include" style="endArrow=open;endSize=12;dashed=1;html=1;rounded=0;entryX=0;entryY=0.5;entryDx=0;entryDy=0;exitX=1.04;exitY=0.505;exitDx=0;exitDy=0;exitPerimeter=0;" parent="1" source="nHeZbiyVeFCBfAyv0oCI-2" target="nHeZbiyVeFCBfAyv0oCI-5" edge="1">
          <mxGeometry width="160" relative="1" as="geometry">
            <mxPoint x="400" y="390" as="sourcePoint" />
            <mxPoint x="560" y="390" as="targetPoint" />
            <mxPoint as="offset" />
          </mxGeometry>
        </mxCell>
        <mxCell id="zNv88BseD1n7ouaVDyPV-1" value="&lt;font color=&quot;#000000&quot; style=&quot;font-size: 19px;&quot;&gt;Hector Napier &lt;br&gt;Final Project OOAD Case Study 2 (50pts)&lt;/font&gt;" style="rounded=0;whiteSpace=wrap;html=1;" parent="1" vertex="1">
          <mxGeometry x="185" y="10" width="430" height="60" as="geometry" />
        </mxCell>
        <mxCell id="j5uEzlYgjDCo3Zua__Tq-3" value="Add Item to shopping&amp;nbsp;&lt;div&gt;Cart&lt;/div&gt;" style="ellipse;whiteSpace=wrap;html=1;" parent="1" vertex="1">
          <mxGeometry x="270" y="490" width="120" height="80" as="geometry" />
        </mxCell>
        <mxCell id="j5uEzlYgjDCo3Zua__Tq-4" value="" style="endArrow=classic;html=1;rounded=0;entryX=0.017;entryY=0.3;entryDx=0;entryDy=0;entryPerimeter=0;exitX=0.991;exitY=0.332;exitDx=0;exitDy=0;exitPerimeter=0;" parent="1" source="5bMXv3uLhK97KtnWlhL0-1" target="j5uEzlYgjDCo3Zua__Tq-3" edge="1">
          <mxGeometry width="50" height="50" relative="1" as="geometry">
            <mxPoint x="150" y="540" as="sourcePoint" />
            <mxPoint x="398.84000000000003" y="778.14" as="targetPoint" />
          </mxGeometry>
        </mxCell>
        <mxCell id="j5uEzlYgjDCo3Zua__Tq-6" value="Remove Item from Shopping Card." style="ellipse;whiteSpace=wrap;html=1;" parent="1" vertex="1">
          <mxGeometry x="490" y="490" width="120" height="80" as="geometry" />
        </mxCell>
        <mxCell id="j5uEzlYgjDCo3Zua__Tq-8" value="Include" style="endArrow=block;endSize=16;endFill=0;html=1;rounded=0;exitX=1;exitY=0.5;exitDx=0;exitDy=0;entryX=0;entryY=0.5;entryDx=0;entryDy=0;" parent="1" source="nHeZbiyVeFCBfAyv0oCI-7" target="nHeZbiyVeFCBfAyv0oCI-6" edge="1">
          <mxGeometry x="-0.341" width="160" relative="1" as="geometry">
            <mxPoint x="560" y="786" as="sourcePoint" />
            <mxPoint x="460" y="700" as="targetPoint" />
            <mxPoint as="offset" />
            <Array as="points" />
          </mxGeometry>
        </mxCell>
        <mxCell id="j5uEzlYgjDCo3Zua__Tq-9" value="Payment Information" style="ellipse;whiteSpace=wrap;html=1;" parent="1" vertex="1">
          <mxGeometry x="270" y="770" width="120" height="80" as="geometry" />
        </mxCell>
        <mxCell id="j5uEzlYgjDCo3Zua__Tq-10" value="Confirm Order" style="ellipse;whiteSpace=wrap;html=1;" parent="1" vertex="1">
          <mxGeometry x="270" y="580" width="120" height="80" as="geometry" />
        </mxCell>
        <mxCell id="j5uEzlYgjDCo3Zua__Tq-11" value="Proceed to Check out&amp;nbsp;" style="ellipse;whiteSpace=wrap;html=1;" parent="1" vertex="1">
          <mxGeometry x="270" y="680" width="120" height="80" as="geometry" />
        </mxCell>
        <mxCell id="j5uEzlYgjDCo3Zua__Tq-12" value="Include" style="endArrow=block;endSize=16;endFill=0;html=1;rounded=0;exitX=1;exitY=0.5;exitDx=0;exitDy=0;entryX=0;entryY=0.5;entryDx=0;entryDy=0;" parent="1" source="j5uEzlYgjDCo3Zua__Tq-3" target="j5uEzlYgjDCo3Zua__Tq-6" edge="1">
          <mxGeometry x="-0.341" width="160" relative="1" as="geometry">
            <mxPoint x="410" y="692" as="sourcePoint" />
            <mxPoint x="410" y="732" as="targetPoint" />
            <mxPoint as="offset" />
            <Array as="points" />
          </mxGeometry>
        </mxCell>
        <mxCell id="j5uEzlYgjDCo3Zua__Tq-13" value="" style="endArrow=classic;html=1;rounded=0;exitX=1;exitY=0.3333333333333333;exitDx=0;exitDy=0;exitPerimeter=0;entryX=0.008;entryY=0.388;entryDx=0;entryDy=0;entryPerimeter=0;" parent="1" source="5bMXv3uLhK97KtnWlhL0-1" target="j5uEzlYgjDCo3Zua__Tq-10" edge="1">
          <mxGeometry width="50" height="50" relative="1" as="geometry">
            <mxPoint x="150" y="640" as="sourcePoint" />
            <mxPoint x="280" y="700" as="targetPoint" />
          </mxGeometry>
        </mxCell>
        <mxCell id="j5uEzlYgjDCo3Zua__Tq-14" value="" style="endArrow=classic;html=1;rounded=0;exitX=1;exitY=0.3333333333333333;exitDx=0;exitDy=0;exitPerimeter=0;entryX=0.083;entryY=0.25;entryDx=0;entryDy=0;entryPerimeter=0;" parent="1" source="5bMXv3uLhK97KtnWlhL0-1" target="j5uEzlYgjDCo3Zua__Tq-11" edge="1">
          <mxGeometry width="50" height="50" relative="1" as="geometry">
            <mxPoint x="147" y="721" as="sourcePoint" />
            <mxPoint x="260" y="780" as="targetPoint" />
          </mxGeometry>
        </mxCell>
        <mxCell id="j5uEzlYgjDCo3Zua__Tq-15" value="" style="endArrow=classic;html=1;rounded=0;entryX=0;entryY=0.5;entryDx=0;entryDy=0;exitX=1;exitY=0.3333333333333333;exitDx=0;exitDy=0;exitPerimeter=0;" parent="1" source="5bMXv3uLhK97KtnWlhL0-1" target="j5uEzlYgjDCo3Zua__Tq-9" edge="1">
          <mxGeometry width="50" height="50" relative="1" as="geometry">
            <mxPoint x="147" y="840" as="sourcePoint" />
            <mxPoint x="260" y="899" as="targetPoint" />
          </mxGeometry>
        </mxCell>
        <mxCell id="j5uEzlYgjDCo3Zua__Tq-16" value="&lt;span id=&quot;docs-internal-guid-8cb2599f-7fff-848b-6761-51fdcf957c3d&quot;&gt;&lt;span style=&quot;font-family: Arial, sans-serif; background-color: transparent; font-weight: 700; font-variant-numeric: normal; font-variant-east-asian: normal; font-variant-alternates: normal; font-variant-position: normal; vertical-align: baseline; white-space-collapse: preserve;&quot;&gt;&lt;font color=&quot;#050505&quot; style=&quot;font-size: 11px;&quot;&gt;E-Commerce Application &lt;/font&gt;&lt;/span&gt;&lt;/span&gt;" style="shape=umlFrame;whiteSpace=wrap;html=1;pointerEvents=0;width=200;height=35;" parent="1" vertex="1">
          <mxGeometry x="200" y="180" width="490" height="910" as="geometry" />
        </mxCell>
        <mxCell id="faty7FYjL2CxQlbBgaai-5" value="Cancel Order" style="ellipse;whiteSpace=wrap;html=1;" parent="1" vertex="1">
          <mxGeometry x="470" y="580" width="120" height="80" as="geometry" />
        </mxCell>
        <mxCell id="faty7FYjL2CxQlbBgaai-6" value="Extend" style="endArrow=block;endSize=16;endFill=0;html=1;rounded=0;exitX=1;exitY=0.5;exitDx=0;exitDy=0;entryX=0;entryY=0.5;entryDx=0;entryDy=0;" parent="1" source="j5uEzlYgjDCo3Zua__Tq-10" target="faty7FYjL2CxQlbBgaai-5" edge="1">
          <mxGeometry x="-0.341" width="160" relative="1" as="geometry">
            <mxPoint x="380" y="740" as="sourcePoint" />
            <mxPoint x="460" y="1030" as="targetPoint" />
            <mxPoint as="offset" />
            <Array as="points" />
          </mxGeometry>
        </mxCell>
        <mxCell id="faty7FYjL2CxQlbBgaai-7" value="&lt;div&gt;Retail Store&lt;/div&gt;" style="shape=umlActor;verticalLabelPosition=bottom;verticalAlign=top;html=1;" parent="1" vertex="1">
          <mxGeometry x="720" y="482" width="110" height="190" as="geometry" />
        </mxCell>
        <mxCell id="faty7FYjL2CxQlbBgaai-10" value="" style="endArrow=classic;html=1;rounded=0;exitX=0;exitY=0.3333333333333333;exitDx=0;exitDy=0;exitPerimeter=0;" parent="1" source="faty7FYjL2CxQlbBgaai-7" target="nHeZbiyVeFCBfAyv0oCI-2" edge="1">
          <mxGeometry width="50" height="50" relative="1" as="geometry">
            <mxPoint x="660" y="570" as="sourcePoint" />
            <mxPoint x="770" y="350" as="targetPoint" />
          </mxGeometry>
        </mxCell>
        <mxCell id="faty7FYjL2CxQlbBgaai-11" value="" style="endArrow=classic;html=1;rounded=0;exitX=0;exitY=0.3333333333333333;exitDx=0;exitDy=0;exitPerimeter=0;entryX=0.774;entryY=0.083;entryDx=0;entryDy=0;entryPerimeter=0;" parent="1" source="faty7FYjL2CxQlbBgaai-7" target="faty7FYjL2CxQlbBgaai-20" edge="1">
          <mxGeometry width="50" height="50" relative="1" as="geometry">
            <mxPoint x="730" y="555" as="sourcePoint" />
            <mxPoint x="376" y="360" as="targetPoint" />
          </mxGeometry>
        </mxCell>
        <mxCell id="faty7FYjL2CxQlbBgaai-12" value="" style="endArrow=classic;html=1;rounded=0;exitX=0;exitY=0.3333333333333333;exitDx=0;exitDy=0;exitPerimeter=0;" parent="1" source="faty7FYjL2CxQlbBgaai-7" target="j5uEzlYgjDCo3Zua__Tq-11" edge="1">
          <mxGeometry width="50" height="50" relative="1" as="geometry">
            <mxPoint x="720" y="550" as="sourcePoint" />
            <mxPoint x="600" y="952" as="targetPoint" />
          </mxGeometry>
        </mxCell>
        <mxCell id="faty7FYjL2CxQlbBgaai-15" value="Card Information" style="ellipse;whiteSpace=wrap;html=1;" parent="1" vertex="1">
          <mxGeometry x="490" y="690" width="120" height="80" as="geometry" />
        </mxCell>
        <mxCell id="faty7FYjL2CxQlbBgaai-16" value="Include" style="endArrow=block;endSize=16;endFill=0;html=1;rounded=0;exitX=1;exitY=0.5;exitDx=0;exitDy=0;entryX=0;entryY=0.5;entryDx=0;entryDy=0;" parent="1" source="j5uEzlYgjDCo3Zua__Tq-9" target="faty7FYjL2CxQlbBgaai-15" edge="1">
          <mxGeometry x="-0.341" width="160" relative="1" as="geometry">
            <mxPoint x="390" y="949.5" as="sourcePoint" />
            <mxPoint x="500" y="950" as="targetPoint" />
            <mxPoint as="offset" />
            <Array as="points" />
          </mxGeometry>
        </mxCell>
        <mxCell id="faty7FYjL2CxQlbBgaai-18" value="Order Completion/&lt;div&gt;Confirmation&lt;/div&gt;" style="ellipse;whiteSpace=wrap;html=1;" parent="1" vertex="1">
          <mxGeometry x="270" y="890" width="120" height="80" as="geometry" />
        </mxCell>
        <mxCell id="faty7FYjL2CxQlbBgaai-19" value="" style="endArrow=classic;html=1;rounded=0;entryX=0.025;entryY=0.375;entryDx=0;entryDy=0;exitX=1;exitY=0.3333333333333333;exitDx=0;exitDy=0;exitPerimeter=0;entryPerimeter=0;" parent="1" source="5bMXv3uLhK97KtnWlhL0-1" target="faty7FYjL2CxQlbBgaai-18" edge="1">
          <mxGeometry width="50" height="50" relative="1" as="geometry">
            <mxPoint x="160" y="555" as="sourcePoint" />
            <mxPoint x="280" y="820" as="targetPoint" />
          </mxGeometry>
        </mxCell>
        <mxCell id="faty7FYjL2CxQlbBgaai-20" value="Order Number, Customer Name, List Of items, total, address.&amp;nbsp;" style="ellipse;whiteSpace=wrap;html=1;" parent="1" vertex="1">
          <mxGeometry x="500" y="870" width="155" height="120" as="geometry" />
        </mxCell>
        <mxCell id="faty7FYjL2CxQlbBgaai-21" value="Include" style="endArrow=block;endSize=16;endFill=0;html=1;rounded=0;exitX=1;exitY=0.5;exitDx=0;exitDy=0;entryX=0;entryY=0.5;entryDx=0;entryDy=0;" parent="1" source="faty7FYjL2CxQlbBgaai-18" target="faty7FYjL2CxQlbBgaai-20" edge="1">
          <mxGeometry x="-0.341" width="160" relative="1" as="geometry">
            <mxPoint x="395" y="930" as="sourcePoint" />
            <mxPoint x="415" y="1132" as="targetPoint" />
            <mxPoint as="offset" />
            <Array as="points" />
          </mxGeometry>
        </mxCell>
      </root>
    </mxGraphModel>
  </diagram>
  <diagram id="yTS-zGicEhvubGqiiFgA" name="Activity Diagram">
    <mxGraphModel dx="1418" dy="797" grid="1" gridSize="10" guides="1" tooltips="1" connect="1" arrows="1" fold="1" page="1" pageScale="1" pageWidth="850" pageHeight="1100" math="0" shadow="0">
      <root>
        <mxCell id="0" />
        <mxCell id="1" parent="0" />
        <mxCell id="_Ud6uV08nvZzO5Yvaj7D-1" value="&lt;p style=&quot;line-height:1.38;margin-top:0pt;margin-bottom:0pt;&quot; dir=&quot;ltr&quot;&gt;&lt;/p&gt;&lt;p style=&quot;line-height:1.38;margin-top:0pt;margin-bottom:0pt;&quot; dir=&quot;ltr&quot;&gt;&lt;/p&gt;&lt;div&gt;&lt;/div&gt;&lt;p style=&quot;line-height:1.38;margin-top:0pt;margin-bottom:0pt;&quot; dir=&quot;ltr&quot;&gt;&lt;/p&gt;&lt;div&gt;&lt;/div&gt;&lt;span style=&quot;font-size: 16px;&quot; id=&quot;docs-internal-guid-476f0666-7fff-e421-7e1c-d5bcd231eda9&quot;&gt;&lt;font color=&quot;#080808&quot; style=&quot;font-size: 16px;&quot;&gt;&lt;span style=&quot;font-family: Arial, sans-serif; background-color: transparent; font-weight: 700; font-variant-numeric: normal; font-variant-east-asian: normal; font-variant-alternates: normal; font-variant-position: normal; vertical-align: baseline; white-space-collapse: preserve;&quot;&gt;Activity Diagram (10 points)&lt;/span&gt;&lt;span style=&quot;font-family: Arial, sans-serif; background-color: transparent; font-variant-numeric: normal; font-variant-east-asian: normal; font-variant-alternates: normal; font-variant-position: normal; vertical-align: baseline; white-space-collapse: preserve;&quot;&gt;: Illustrate the sequence of &lt;/span&gt;&lt;/font&gt;&lt;/span&gt;&lt;div style=&quot;font-size: 16px;&quot;&gt;&lt;font color=&quot;#080808&quot; style=&quot;font-size: 16px;&quot;&gt;&lt;span style=&quot;font-family: Arial, sans-serif; background-color: transparent; font-variant-numeric: normal; font-variant-east-asian: normal; font-variant-alternates: normal; font-variant-position: normal; vertical-align: baseline; white-space-collapse: preserve;&quot;&gt;activities for each use case.&lt;/span&gt;&lt;/font&gt;&lt;br&gt;&lt;p style=&quot;font-size: 16px;&quot;&gt;&lt;/p&gt;&lt;span style=&quot;font-size: 16px;&quot; id=&quot;docs-internal-guid-7112bc8c-7fff-d57e-7e25-45a56f821945&quot;&gt;&lt;/span&gt;&lt;/div&gt;" style="rounded=0;whiteSpace=wrap;html=1;" parent="1" vertex="1">
          <mxGeometry x="210" width="450" height="60" as="geometry" />
        </mxCell>
        <mxCell id="hPD5M8SMGnqX-7s_gUQp-1" value="" style="ellipse;html=1;shape=startState;fillColor=#000000;strokeColor=#ff0000;" parent="1" vertex="1">
          <mxGeometry x="60" y="120" width="30" height="30" as="geometry" />
        </mxCell>
        <mxCell id="d6ZAwayhKA5jPn56wRFN-2" value="Register Account" style="rounded=1;whiteSpace=wrap;html=1;" parent="1" vertex="1">
          <mxGeometry x="200" y="90" width="120" height="60" as="geometry" />
        </mxCell>
        <mxCell id="d6ZAwayhKA5jPn56wRFN-3" value="Costumer Not Found" style="rounded=1;whiteSpace=wrap;html=1;" parent="1" vertex="1">
          <mxGeometry x="310" y="190" width="120" height="30" as="geometry" />
        </mxCell>
        <mxCell id="d6ZAwayhKA5jPn56wRFN-4" value="Login" style="rounded=1;whiteSpace=wrap;html=1;" parent="1" vertex="1">
          <mxGeometry x="420" y="80" width="80" height="40" as="geometry" />
        </mxCell>
        <mxCell id="d6ZAwayhKA5jPn56wRFN-7" value="" style="ellipse;html=1;shape=endState;fillColor=#000000;strokeColor=#ff0000;" parent="1" vertex="1">
          <mxGeometry x="657.5" y="805" width="30" height="30" as="geometry" />
        </mxCell>
        <mxCell id="d6ZAwayhKA5jPn56wRFN-48" value="" style="rhombus;whiteSpace=wrap;html=1;" parent="1" vertex="1">
          <mxGeometry x="440" y="140" width="40" height="40" as="geometry" />
        </mxCell>
        <mxCell id="43f0WN8mzrDbMwz-3VTG-8" value="" style="endArrow=open;endFill=1;endSize=12;html=1;rounded=0;exitX=0;exitY=0.5;exitDx=0;exitDy=0;entryX=0.66;entryY=0.013;entryDx=0;entryDy=0;entryPerimeter=0;" parent="1" source="d6ZAwayhKA5jPn56wRFN-48" target="d6ZAwayhKA5jPn56wRFN-3" edge="1">
          <mxGeometry width="160" relative="1" as="geometry">
            <mxPoint x="580" y="285" as="sourcePoint" />
            <mxPoint x="540" y="310" as="targetPoint" />
          </mxGeometry>
        </mxCell>
        <mxCell id="43f0WN8mzrDbMwz-3VTG-43" value="B" style="ellipse;" parent="1" vertex="1">
          <mxGeometry x="510" y="550" width="30" height="30" as="geometry" />
        </mxCell>
        <mxCell id="lvntcp9gN8Iw_CxUbA4a-69" style="edgeStyle=orthogonalEdgeStyle;rounded=0;orthogonalLoop=1;jettySize=auto;html=1;endArrow=open;endFill=0;" parent="1" source="43f0WN8mzrDbMwz-3VTG-56" edge="1">
          <mxGeometry relative="1" as="geometry">
            <mxPoint x="280" y="795" as="targetPoint" />
          </mxGeometry>
        </mxCell>
        <mxCell id="43f0WN8mzrDbMwz-3VTG-56" value="&lt;font color=&quot;#050505&quot;&gt;Proceed To Ckeckout&lt;/font&gt;" style="html=1;shape=mxgraph.infographic.ribbonSimple;notch1=20;notch2=0;align=center;verticalAlign=middle;fontSize=14;fontStyle=0;fillColor=#FFFFFF;flipH=0;spacingRight=0;spacingLeft=14;whiteSpace=wrap;" parent="1" vertex="1">
          <mxGeometry x="80" y="775" width="170" height="40" as="geometry" />
        </mxCell>
        <mxCell id="43f0WN8mzrDbMwz-3VTG-70" value="B" style="ellipse;" parent="1" vertex="1">
          <mxGeometry x="575" y="360" width="30" height="30" as="geometry" />
        </mxCell>
        <mxCell id="lvntcp9gN8Iw_CxUbA4a-72" style="edgeStyle=orthogonalEdgeStyle;rounded=0;orthogonalLoop=1;jettySize=auto;html=1;endArrow=open;endFill=0;" parent="1" source="43f0WN8mzrDbMwz-3VTG-78" edge="1">
          <mxGeometry relative="1" as="geometry">
            <mxPoint x="310" y="825" as="targetPoint" />
          </mxGeometry>
        </mxCell>
        <mxCell id="43f0WN8mzrDbMwz-3VTG-78" value="A" style="ellipse;" parent="1" vertex="1">
          <mxGeometry x="295" y="870" width="30" height="30" as="geometry" />
        </mxCell>
        <mxCell id="lvntcp9gN8Iw_CxUbA4a-3" value="" style="rhombus;whiteSpace=wrap;html=1;" parent="1" vertex="1">
          <mxGeometry x="350" y="100" width="40" height="40" as="geometry" />
        </mxCell>
        <mxCell id="lvntcp9gN8Iw_CxUbA4a-53" style="edgeStyle=orthogonalEdgeStyle;rounded=0;orthogonalLoop=1;jettySize=auto;html=1;entryX=0;entryY=0.5;entryDx=0;entryDy=0;endArrow=open;endFill=0;curved=1;exitX=0.327;exitY=1.013;exitDx=0;exitDy=0;exitPerimeter=0;" parent="1" source="lvntcp9gN8Iw_CxUbA4a-5" target="lvntcp9gN8Iw_CxUbA4a-17" edge="1">
          <mxGeometry relative="1" as="geometry">
            <mxPoint x="64.97" y="375" as="sourcePoint" />
          </mxGeometry>
        </mxCell>
        <mxCell id="lvntcp9gN8Iw_CxUbA4a-5" value="Customer Found" style="rounded=1;whiteSpace=wrap;html=1;" parent="1" vertex="1">
          <mxGeometry x="490" y="190" width="120" height="30" as="geometry" />
        </mxCell>
        <mxCell id="lvntcp9gN8Iw_CxUbA4a-6" value="" style="endArrow=open;endFill=1;endSize=12;html=1;rounded=0;exitX=1;exitY=0.5;exitDx=0;exitDy=0;" parent="1" source="d6ZAwayhKA5jPn56wRFN-48" target="lvntcp9gN8Iw_CxUbA4a-5" edge="1">
          <mxGeometry width="160" relative="1" as="geometry">
            <mxPoint x="440" y="190" as="sourcePoint" />
            <mxPoint x="400" y="228" as="targetPoint" />
          </mxGeometry>
        </mxCell>
        <mxCell id="lvntcp9gN8Iw_CxUbA4a-10" value="" style="endArrow=open;endFill=1;endSize=12;html=1;rounded=0;exitX=0.871;exitY=0.357;exitDx=0;exitDy=0;entryX=0;entryY=0.5;entryDx=0;entryDy=0;exitPerimeter=0;" parent="1" source="hPD5M8SMGnqX-7s_gUQp-1" target="d6ZAwayhKA5jPn56wRFN-2" edge="1">
          <mxGeometry width="160" relative="1" as="geometry">
            <mxPoint x="30" y="40" as="sourcePoint" />
            <mxPoint x="77" y="70" as="targetPoint" />
          </mxGeometry>
        </mxCell>
        <mxCell id="lvntcp9gN8Iw_CxUbA4a-11" value="" style="endArrow=open;endFill=1;endSize=12;html=1;rounded=0;exitX=0.94;exitY=0.48;exitDx=0;exitDy=0;entryX=0;entryY=0.5;entryDx=0;entryDy=0;exitPerimeter=0;" parent="1" source="lvntcp9gN8Iw_CxUbA4a-3" target="d6ZAwayhKA5jPn56wRFN-4" edge="1">
          <mxGeometry width="160" relative="1" as="geometry">
            <mxPoint x="380" y="120" as="sourcePoint" />
            <mxPoint x="427" y="150" as="targetPoint" />
          </mxGeometry>
        </mxCell>
        <mxCell id="lvntcp9gN8Iw_CxUbA4a-12" value="" style="endArrow=open;endFill=1;endSize=12;html=1;rounded=0;exitX=0.497;exitY=-0.093;exitDx=0;exitDy=0;exitPerimeter=0;entryX=0.5;entryY=1;entryDx=0;entryDy=0;" parent="1" source="d6ZAwayhKA5jPn56wRFN-3" target="lvntcp9gN8Iw_CxUbA4a-3" edge="1">
          <mxGeometry width="160" relative="1" as="geometry">
            <mxPoint x="510" y="190" as="sourcePoint" />
            <mxPoint x="557" y="220" as="targetPoint" />
          </mxGeometry>
        </mxCell>
        <mxCell id="lvntcp9gN8Iw_CxUbA4a-13" value="" style="endArrow=open;endFill=1;endSize=12;html=1;rounded=0;exitX=1;exitY=0.5;exitDx=0;exitDy=0;entryX=0;entryY=0.5;entryDx=0;entryDy=0;" parent="1" target="lvntcp9gN8Iw_CxUbA4a-3" edge="1">
          <mxGeometry width="160" relative="1" as="geometry">
            <mxPoint x="320" y="120" as="sourcePoint" />
            <mxPoint x="367" y="150" as="targetPoint" />
          </mxGeometry>
        </mxCell>
        <mxCell id="lvntcp9gN8Iw_CxUbA4a-14" value="" style="endArrow=open;endFill=1;endSize=12;html=1;rounded=0;exitX=0.5;exitY=1;exitDx=0;exitDy=0;entryX=0.5;entryY=0;entryDx=0;entryDy=0;" parent="1" source="d6ZAwayhKA5jPn56wRFN-4" target="d6ZAwayhKA5jPn56wRFN-48" edge="1">
          <mxGeometry width="160" relative="1" as="geometry">
            <mxPoint x="530" y="210" as="sourcePoint" />
            <mxPoint x="577" y="240" as="targetPoint" />
          </mxGeometry>
        </mxCell>
        <mxCell id="lvntcp9gN8Iw_CxUbA4a-17" value="" style="rhombus;whiteSpace=wrap;html=1;" parent="1" vertex="1">
          <mxGeometry x="255" y="360" width="30" height="30" as="geometry" />
        </mxCell>
        <mxCell id="lvntcp9gN8Iw_CxUbA4a-19" value="" style="rhombus;whiteSpace=wrap;html=1;" parent="1" vertex="1">
          <mxGeometry x="430" y="420" width="20" height="20" as="geometry" />
        </mxCell>
        <mxCell id="lvntcp9gN8Iw_CxUbA4a-20" value="" style="endArrow=open;endFill=1;endSize=12;html=1;rounded=0;exitX=1;exitY=0.5;exitDx=0;exitDy=0;entryX=0.38;entryY=0.023;entryDx=0;entryDy=0;entryPerimeter=0;" parent="1" source="lvntcp9gN8Iw_CxUbA4a-17" target="lvntcp9gN8Iw_CxUbA4a-21" edge="1">
          <mxGeometry width="160" relative="1" as="geometry">
            <mxPoint x="275" y="415" as="sourcePoint" />
            <mxPoint x="345" y="415" as="targetPoint" />
            <Array as="points">
              <mxPoint x="325.03" y="395" />
            </Array>
          </mxGeometry>
        </mxCell>
        <mxCell id="lvntcp9gN8Iw_CxUbA4a-21" value="Browse Items" style="rounded=1;whiteSpace=wrap;html=1;" parent="1" vertex="1">
          <mxGeometry x="285" y="415" width="120" height="30" as="geometry" />
        </mxCell>
        <mxCell id="lvntcp9gN8Iw_CxUbA4a-39" style="edgeStyle=orthogonalEdgeStyle;rounded=0;orthogonalLoop=1;jettySize=auto;html=1;entryX=0;entryY=0.5;entryDx=0;entryDy=0;endArrow=open;endFill=0;" parent="1" source="lvntcp9gN8Iw_CxUbA4a-24" target="lvntcp9gN8Iw_CxUbA4a-38" edge="1">
          <mxGeometry relative="1" as="geometry" />
        </mxCell>
        <mxCell id="lvntcp9gN8Iw_CxUbA4a-24" value="View Item" style="rounded=1;whiteSpace=wrap;html=1;" parent="1" vertex="1">
          <mxGeometry x="420" y="475" width="60" height="30" as="geometry" />
        </mxCell>
        <mxCell id="lvntcp9gN8Iw_CxUbA4a-30" style="edgeStyle=orthogonalEdgeStyle;rounded=0;orthogonalLoop=1;jettySize=auto;html=1;entryX=0.5;entryY=0;entryDx=0;entryDy=0;exitX=0.5;exitY=0;exitDx=0;exitDy=0;endArrow=open;endFill=0;" parent="1" source="lvntcp9gN8Iw_CxUbA4a-26" target="lvntcp9gN8Iw_CxUbA4a-17" edge="1">
          <mxGeometry relative="1" as="geometry">
            <Array as="points">
              <mxPoint x="655" y="350" />
              <mxPoint x="270" y="350" />
            </Array>
          </mxGeometry>
        </mxCell>
        <mxCell id="lvntcp9gN8Iw_CxUbA4a-77" style="edgeStyle=orthogonalEdgeStyle;rounded=0;orthogonalLoop=1;jettySize=auto;html=1;endArrow=open;endFill=0;" parent="1" source="lvntcp9gN8Iw_CxUbA4a-26" edge="1">
          <mxGeometry relative="1" as="geometry">
            <mxPoint x="695.03" y="445" as="targetPoint" />
          </mxGeometry>
        </mxCell>
        <mxCell id="lvntcp9gN8Iw_CxUbA4a-26" value="" style="rhombus;whiteSpace=wrap;html=1;" parent="1" vertex="1">
          <mxGeometry x="645" y="435" width="20" height="20" as="geometry" />
        </mxCell>
        <mxCell id="lvntcp9gN8Iw_CxUbA4a-31" value="View Shopping Cart" style="rounded=1;whiteSpace=wrap;html=1;" parent="1" vertex="1">
          <mxGeometry x="550" y="490" width="80" height="30" as="geometry" />
        </mxCell>
        <mxCell id="lvntcp9gN8Iw_CxUbA4a-42" style="edgeStyle=orthogonalEdgeStyle;rounded=0;orthogonalLoop=1;jettySize=auto;html=1;entryX=0;entryY=0.5;entryDx=0;entryDy=0;endArrow=open;endFill=0;" parent="1" source="lvntcp9gN8Iw_CxUbA4a-32" target="lvntcp9gN8Iw_CxUbA4a-41" edge="1">
          <mxGeometry relative="1" as="geometry" />
        </mxCell>
        <mxCell id="lvntcp9gN8Iw_CxUbA4a-32" value="Add Item To Shoping Card" style="rounded=1;whiteSpace=wrap;html=1;" parent="1" vertex="1">
          <mxGeometry x="480" y="380" width="60" height="80" as="geometry" />
        </mxCell>
        <mxCell id="lvntcp9gN8Iw_CxUbA4a-36" style="edgeStyle=orthogonalEdgeStyle;rounded=0;orthogonalLoop=1;jettySize=auto;html=1;entryX=0.347;entryY=-0.093;entryDx=0;entryDy=0;entryPerimeter=0;endArrow=open;endFill=0;" parent="1" source="lvntcp9gN8Iw_CxUbA4a-19" target="lvntcp9gN8Iw_CxUbA4a-24" edge="1">
          <mxGeometry relative="1" as="geometry" />
        </mxCell>
        <mxCell id="lvntcp9gN8Iw_CxUbA4a-40" style="edgeStyle=orthogonalEdgeStyle;rounded=0;orthogonalLoop=1;jettySize=auto;html=1;entryX=0.5;entryY=1;entryDx=0;entryDy=0;endArrow=open;endFill=0;" parent="1" source="lvntcp9gN8Iw_CxUbA4a-38" target="lvntcp9gN8Iw_CxUbA4a-32" edge="1">
          <mxGeometry relative="1" as="geometry" />
        </mxCell>
        <mxCell id="lvntcp9gN8Iw_CxUbA4a-62" style="edgeStyle=orthogonalEdgeStyle;rounded=0;orthogonalLoop=1;jettySize=auto;html=1;entryX=0.5;entryY=1;entryDx=0;entryDy=0;endArrow=open;endFill=0;" parent="1" source="lvntcp9gN8Iw_CxUbA4a-38" target="lvntcp9gN8Iw_CxUbA4a-17" edge="1">
          <mxGeometry relative="1" as="geometry">
            <Array as="points">
              <mxPoint x="510.03" y="525" />
              <mxPoint x="270.03" y="525" />
            </Array>
          </mxGeometry>
        </mxCell>
        <mxCell id="lvntcp9gN8Iw_CxUbA4a-38" value="" style="rhombus;whiteSpace=wrap;html=1;" parent="1" vertex="1">
          <mxGeometry x="500" y="480" width="20" height="20" as="geometry" />
        </mxCell>
        <mxCell id="lvntcp9gN8Iw_CxUbA4a-43" style="edgeStyle=orthogonalEdgeStyle;rounded=0;orthogonalLoop=1;jettySize=auto;html=1;entryX=0.5;entryY=0;entryDx=0;entryDy=0;endArrow=open;endFill=0;" parent="1" source="lvntcp9gN8Iw_CxUbA4a-41" target="lvntcp9gN8Iw_CxUbA4a-31" edge="1">
          <mxGeometry relative="1" as="geometry" />
        </mxCell>
        <mxCell id="lvntcp9gN8Iw_CxUbA4a-41" value="" style="rhombus;whiteSpace=wrap;html=1;" parent="1" vertex="1">
          <mxGeometry x="580" y="415" width="20" height="20" as="geometry" />
        </mxCell>
        <mxCell id="lvntcp9gN8Iw_CxUbA4a-44" style="edgeStyle=orthogonalEdgeStyle;rounded=0;orthogonalLoop=1;jettySize=auto;html=1;entryX=-0.12;entryY=0.46;entryDx=0;entryDy=0;entryPerimeter=0;endArrow=open;endFill=0;" parent="1" source="lvntcp9gN8Iw_CxUbA4a-41" target="lvntcp9gN8Iw_CxUbA4a-26" edge="1">
          <mxGeometry relative="1" as="geometry">
            <mxPoint x="785" y="428" as="targetPoint" />
          </mxGeometry>
        </mxCell>
        <mxCell id="lvntcp9gN8Iw_CxUbA4a-45" style="edgeStyle=orthogonalEdgeStyle;rounded=0;orthogonalLoop=1;jettySize=auto;html=1;endArrow=open;endFill=0;entryX=0.5;entryY=0;entryDx=0;entryDy=0;" parent="1" source="lvntcp9gN8Iw_CxUbA4a-21" target="lvntcp9gN8Iw_CxUbA4a-19" edge="1">
          <mxGeometry relative="1" as="geometry">
            <mxPoint x="430" y="390" as="targetPoint" />
            <Array as="points">
              <mxPoint x="345" y="400" />
              <mxPoint x="440" y="400" />
            </Array>
          </mxGeometry>
        </mxCell>
        <mxCell id="lvntcp9gN8Iw_CxUbA4a-46" style="edgeStyle=orthogonalEdgeStyle;rounded=0;orthogonalLoop=1;jettySize=auto;html=1;entryX=-0.033;entryY=0.633;entryDx=0;entryDy=0;entryPerimeter=0;endArrow=open;endFill=0;" parent="1" source="lvntcp9gN8Iw_CxUbA4a-19" target="lvntcp9gN8Iw_CxUbA4a-32" edge="1">
          <mxGeometry relative="1" as="geometry" />
        </mxCell>
        <mxCell id="lvntcp9gN8Iw_CxUbA4a-78" style="edgeStyle=orthogonalEdgeStyle;rounded=0;orthogonalLoop=1;jettySize=auto;html=1;endArrow=open;endFill=0;" parent="1" source="lvntcp9gN8Iw_CxUbA4a-55" edge="1">
          <mxGeometry relative="1" as="geometry">
            <mxPoint x="545.03" y="565" as="targetPoint" />
          </mxGeometry>
        </mxCell>
        <mxCell id="lvntcp9gN8Iw_CxUbA4a-55" value="" style="rhombus;whiteSpace=wrap;html=1;" parent="1" vertex="1">
          <mxGeometry x="580" y="555" width="20" height="20" as="geometry" />
        </mxCell>
        <mxCell id="lvntcp9gN8Iw_CxUbA4a-56" style="edgeStyle=orthogonalEdgeStyle;rounded=0;orthogonalLoop=1;jettySize=auto;html=1;entryX=0.5;entryY=0;entryDx=0;entryDy=0;exitX=0.629;exitY=1.039;exitDx=0;exitDy=0;exitPerimeter=0;endArrow=open;endFill=0;" parent="1" source="lvntcp9gN8Iw_CxUbA4a-31" target="lvntcp9gN8Iw_CxUbA4a-55" edge="1">
          <mxGeometry relative="1" as="geometry">
            <Array as="points" />
          </mxGeometry>
        </mxCell>
        <mxCell id="lvntcp9gN8Iw_CxUbA4a-59" style="edgeStyle=orthogonalEdgeStyle;rounded=0;orthogonalLoop=1;jettySize=auto;html=1;entryX=0.5;entryY=1;entryDx=0;entryDy=0;endArrow=open;endFill=0;" parent="1" source="lvntcp9gN8Iw_CxUbA4a-57" target="lvntcp9gN8Iw_CxUbA4a-26" edge="1">
          <mxGeometry relative="1" as="geometry" />
        </mxCell>
        <mxCell id="lvntcp9gN8Iw_CxUbA4a-57" value="Remove&amp;nbsp; Item From Shopping Card" style="rounded=1;whiteSpace=wrap;html=1;" parent="1" vertex="1">
          <mxGeometry x="550" y="610" width="70" height="80" as="geometry" />
        </mxCell>
        <mxCell id="lvntcp9gN8Iw_CxUbA4a-58" style="edgeStyle=orthogonalEdgeStyle;rounded=0;orthogonalLoop=1;jettySize=auto;html=1;exitX=0.495;exitY=1.09;exitDx=0;exitDy=0;exitPerimeter=0;entryX=0.57;entryY=0.024;entryDx=0;entryDy=0;entryPerimeter=0;endArrow=open;endFill=0;" parent="1" source="lvntcp9gN8Iw_CxUbA4a-55" target="lvntcp9gN8Iw_CxUbA4a-57" edge="1">
          <mxGeometry relative="1" as="geometry">
            <mxPoint x="590" y="620" as="targetPoint" />
            <Array as="points" />
          </mxGeometry>
        </mxCell>
        <mxCell id="lvntcp9gN8Iw_CxUbA4a-60" value="[Continue Browsing]" style="text;html=1;align=center;verticalAlign=middle;resizable=0;points=[];autosize=1;strokeColor=none;fillColor=none;fontSize=8;" parent="1" vertex="1">
          <mxGeometry x="355" y="350" width="100" height="20" as="geometry" />
        </mxCell>
        <mxCell id="lvntcp9gN8Iw_CxUbA4a-61" value="[Item Found]" style="text;html=1;align=center;verticalAlign=middle;resizable=0;points=[];autosize=1;strokeColor=none;fillColor=none;fontSize=8;" parent="1" vertex="1">
          <mxGeometry x="360.03" y="375" width="70" height="20" as="geometry" />
        </mxCell>
        <mxCell id="lvntcp9gN8Iw_CxUbA4a-70" style="edgeStyle=orthogonalEdgeStyle;rounded=0;orthogonalLoop=1;jettySize=auto;html=1;endArrow=open;endFill=0;" parent="1" source="lvntcp9gN8Iw_CxUbA4a-63" target="lvntcp9gN8Iw_CxUbA4a-64" edge="1">
          <mxGeometry relative="1" as="geometry" />
        </mxCell>
        <mxCell id="ZIJTNuaYDMszgu3Ru-6k-11" style="edgeStyle=orthogonalEdgeStyle;rounded=0;orthogonalLoop=1;jettySize=auto;html=1;entryX=0.5;entryY=1;entryDx=0;entryDy=0;endArrow=open;endFill=0;" parent="1" source="lvntcp9gN8Iw_CxUbA4a-63" target="ZIJTNuaYDMszgu3Ru-6k-2" edge="1">
          <mxGeometry relative="1" as="geometry" />
        </mxCell>
        <mxCell id="lvntcp9gN8Iw_CxUbA4a-63" value="" style="rhombus;whiteSpace=wrap;html=1;" parent="1" vertex="1">
          <mxGeometry x="285" y="772.5" width="50" height="45" as="geometry" />
        </mxCell>
        <mxCell id="lvntcp9gN8Iw_CxUbA4a-64" value="CheckOut" style="rounded=1;whiteSpace=wrap;html=1;" parent="1" vertex="1">
          <mxGeometry x="374.97" y="780" width="85.03" height="30" as="geometry" />
        </mxCell>
        <mxCell id="lvntcp9gN8Iw_CxUbA4a-76" value="A" style="ellipse;" parent="1" vertex="1">
          <mxGeometry x="705.03" y="430" width="30" height="30" as="geometry" />
        </mxCell>
        <mxCell id="lvntcp9gN8Iw_CxUbA4a-80" style="edgeStyle=orthogonalEdgeStyle;rounded=0;orthogonalLoop=1;jettySize=auto;html=1;entryX=0.499;entryY=-0.08;entryDx=0;entryDy=0;entryPerimeter=0;endArrow=open;endFill=0;" parent="1" source="43f0WN8mzrDbMwz-3VTG-70" target="lvntcp9gN8Iw_CxUbA4a-41" edge="1">
          <mxGeometry relative="1" as="geometry" />
        </mxCell>
        <mxCell id="lvntcp9gN8Iw_CxUbA4a-81" value="Order Completion Information." style="rounded=1;whiteSpace=wrap;html=1;" parent="1" vertex="1">
          <mxGeometry x="610" y="715" width="105" height="30" as="geometry" />
        </mxCell>
        <mxCell id="lvntcp9gN8Iw_CxUbA4a-83" value="" style="edgeStyle=orthogonalEdgeStyle;rounded=0;orthogonalLoop=1;jettySize=auto;html=1;endArrow=open;endFill=0;exitX=0.5;exitY=1;exitDx=0;exitDy=0;" parent="1" source="lvntcp9gN8Iw_CxUbA4a-64" edge="1">
          <mxGeometry relative="1" as="geometry">
            <mxPoint x="460" y="795" as="sourcePoint" />
            <mxPoint x="440" y="840" as="targetPoint" />
          </mxGeometry>
        </mxCell>
        <mxCell id="lvntcp9gN8Iw_CxUbA4a-84" style="edgeStyle=orthogonalEdgeStyle;rounded=0;orthogonalLoop=1;jettySize=auto;html=1;entryX=0;entryY=0.5;entryDx=0;entryDy=0;endArrow=open;endFill=0;exitX=0.5;exitY=0;exitDx=0;exitDy=0;" parent="1" source="lvntcp9gN8Iw_CxUbA4a-82" target="lvntcp9gN8Iw_CxUbA4a-81" edge="1">
          <mxGeometry relative="1" as="geometry">
            <Array as="points">
              <mxPoint x="565" y="730" />
            </Array>
          </mxGeometry>
        </mxCell>
        <mxCell id="lvntcp9gN8Iw_CxUbA4a-82" value="" style="rhombus;whiteSpace=wrap;html=1;" parent="1" vertex="1">
          <mxGeometry x="540" y="772.5" width="50" height="45" as="geometry" />
        </mxCell>
        <mxCell id="lvntcp9gN8Iw_CxUbA4a-85" value="" style="endArrow=open;endFill=1;endSize=12;html=1;rounded=0;exitX=0.525;exitY=1.075;exitDx=0;exitDy=0;entryX=0.5;entryY=0;entryDx=0;entryDy=0;exitPerimeter=0;" parent="1" source="lvntcp9gN8Iw_CxUbA4a-81" target="d6ZAwayhKA5jPn56wRFN-7" edge="1">
          <mxGeometry width="160" relative="1" as="geometry">
            <mxPoint x="665" y="745" as="sourcePoint" />
            <mxPoint x="614" y="775" as="targetPoint" />
          </mxGeometry>
        </mxCell>
        <mxCell id="ZIJTNuaYDMszgu3Ru-6k-5" style="edgeStyle=orthogonalEdgeStyle;rounded=0;orthogonalLoop=1;jettySize=auto;html=1;endArrow=open;endFill=0;entryX=0.5;entryY=1;entryDx=0;entryDy=0;" parent="1" source="ZIJTNuaYDMszgu3Ru-6k-2" target="ZIJTNuaYDMszgu3Ru-6k-4" edge="1">
          <mxGeometry relative="1" as="geometry">
            <mxPoint x="220" y="680" as="targetPoint" />
          </mxGeometry>
        </mxCell>
        <mxCell id="ZIJTNuaYDMszgu3Ru-6k-2" value="Cancel Order" style="rounded=1;whiteSpace=wrap;html=1;" parent="1" vertex="1">
          <mxGeometry x="267.48" y="710" width="85.03" height="30" as="geometry" />
        </mxCell>
        <mxCell id="ZIJTNuaYDMszgu3Ru-6k-7" style="edgeStyle=orthogonalEdgeStyle;rounded=0;orthogonalLoop=1;jettySize=auto;html=1;entryX=0.5;entryY=1;entryDx=0;entryDy=0;endArrow=open;endFill=0;" parent="1" source="ZIJTNuaYDMszgu3Ru-6k-4" target="ZIJTNuaYDMszgu3Ru-6k-6" edge="1">
          <mxGeometry relative="1" as="geometry" />
        </mxCell>
        <mxCell id="ZIJTNuaYDMszgu3Ru-6k-4" value="" style="rhombus;whiteSpace=wrap;html=1;" parent="1" vertex="1">
          <mxGeometry x="200" y="620" width="50" height="45" as="geometry" />
        </mxCell>
        <mxCell id="ZIJTNuaYDMszgu3Ru-6k-6" value="C" style="ellipse;" parent="1" vertex="1">
          <mxGeometry x="210" y="550" width="30" height="30" as="geometry" />
        </mxCell>
        <mxCell id="ZIJTNuaYDMszgu3Ru-6k-9" style="edgeStyle=orthogonalEdgeStyle;rounded=0;orthogonalLoop=1;jettySize=auto;html=1;entryX=0.5;entryY=1;entryDx=0;entryDy=0;endArrow=open;endFill=0;" parent="1" source="ZIJTNuaYDMszgu3Ru-6k-8" target="d6ZAwayhKA5jPn56wRFN-48" edge="1">
          <mxGeometry relative="1" as="geometry" />
        </mxCell>
        <mxCell id="ZIJTNuaYDMszgu3Ru-6k-8" value="C" style="ellipse;" parent="1" vertex="1">
          <mxGeometry x="445" y="220" width="30" height="30" as="geometry" />
        </mxCell>
        <mxCell id="PTkllQ_8zhc1dkWvK1gj-4" style="edgeStyle=orthogonalEdgeStyle;rounded=0;orthogonalLoop=1;jettySize=auto;html=1;entryX=0;entryY=0.5;entryDx=0;entryDy=0;endArrow=open;endFill=0;" edge="1" parent="1" source="PTkllQ_8zhc1dkWvK1gj-1" target="PTkllQ_8zhc1dkWvK1gj-3">
          <mxGeometry relative="1" as="geometry" />
        </mxCell>
        <mxCell id="PTkllQ_8zhc1dkWvK1gj-1" value="" style="rhombus;whiteSpace=wrap;html=1;" vertex="1" parent="1">
          <mxGeometry x="414.99999999999994" y="840" width="50" height="45" as="geometry" />
        </mxCell>
        <mxCell id="PTkllQ_8zhc1dkWvK1gj-5" style="edgeStyle=orthogonalEdgeStyle;rounded=0;orthogonalLoop=1;jettySize=auto;html=1;entryX=0.5;entryY=1;entryDx=0;entryDy=0;" edge="1" parent="1" source="PTkllQ_8zhc1dkWvK1gj-3" target="lvntcp9gN8Iw_CxUbA4a-82">
          <mxGeometry relative="1" as="geometry" />
        </mxCell>
        <mxCell id="PTkllQ_8zhc1dkWvK1gj-3" value="Payment Information" style="rounded=1;whiteSpace=wrap;html=1;" vertex="1" parent="1">
          <mxGeometry x="464.97" y="897.5" width="85.03" height="30" as="geometry" />
        </mxCell>
      </root>
    </mxGraphModel>
  </diagram>
  <diagram id="w3MdbSi1B1ckAwAdnEj9" name="State Diagram">
    <mxGraphModel dx="1418" dy="797" grid="1" gridSize="10" guides="1" tooltips="1" connect="1" arrows="1" fold="1" page="1" pageScale="1" pageWidth="850" pageHeight="1100" math="0" shadow="0">
      <root>
        <mxCell id="0" />
        <mxCell id="1" parent="0" />
        <mxCell id="1YR_dV-7LSyHW06M7RJ3-1" value="&lt;p style=&quot;line-height:1.38;margin-top:0pt;margin-bottom:0pt;&quot; dir=&quot;ltr&quot;&gt;&lt;/p&gt;&lt;p style=&quot;line-height:1.38;margin-top:0pt;margin-bottom:0pt;&quot; dir=&quot;ltr&quot;&gt;&lt;/p&gt;&lt;div&gt;&lt;/div&gt;&lt;p style=&quot;line-height:1.38;margin-top:0pt;margin-bottom:0pt;&quot; dir=&quot;ltr&quot;&gt;&lt;/p&gt;&lt;div&gt;&lt;/div&gt;&lt;div style=&quot;font-size: 16px;&quot;&gt;&lt;span id=&quot;docs-internal-guid-f29eaaca-7fff-dae4-1891-ce321481029f&quot;&gt;&lt;font color=&quot;#000000&quot;&gt;&lt;span style=&quot;font-size: 11pt; font-family: Arial, sans-serif; background-color: transparent; font-weight: 700; font-variant-numeric: normal; font-variant-east-asian: normal; font-variant-alternates: normal; font-variant-position: normal; vertical-align: baseline; white-space-collapse: preserve;&quot;&gt;State Diagram (10 points)&lt;/span&gt;&lt;span style=&quot;font-size: 11pt; font-family: Arial, sans-serif; background-color: transparent; font-variant-numeric: normal; font-variant-east-asian: normal; font-variant-alternates: normal; font-variant-position: normal; vertical-align: baseline; white-space-collapse: preserve;&quot;&gt;: Depict the possible states of the system.&lt;/span&gt;&lt;/font&gt;&lt;/span&gt;&lt;br&gt;&lt;p style=&quot;font-size: 16px;&quot;&gt;&lt;/p&gt;&lt;span style=&quot;font-size: 16px;&quot; id=&quot;docs-internal-guid-7112bc8c-7fff-d57e-7e25-45a56f821945&quot;&gt;&lt;/span&gt;&lt;/div&gt;" style="rounded=0;whiteSpace=wrap;html=1;" parent="1" vertex="1">
          <mxGeometry x="200" y="10" width="480" height="90" as="geometry" />
        </mxCell>
        <mxCell id="fvsf73NYnKq7ikZgamPG-2" value="" style="ellipse;html=1;shape=startState;fillColor=#000000;strokeColor=#ff0000;" parent="1" vertex="1">
          <mxGeometry y="180" width="30" height="30" as="geometry" />
        </mxCell>
        <mxCell id="fvsf73NYnKq7ikZgamPG-3" value="" style="edgeStyle=orthogonalEdgeStyle;html=1;verticalAlign=bottom;endArrow=open;endSize=8;strokeColor=#ff0000;rounded=0;" parent="1" edge="1">
          <mxGeometry relative="1" as="geometry">
            <mxPoint x="95" y="195" as="targetPoint" />
            <mxPoint x="25" y="195" as="sourcePoint" />
          </mxGeometry>
        </mxCell>
        <mxCell id="fvsf73NYnKq7ikZgamPG-36" style="edgeStyle=orthogonalEdgeStyle;rounded=0;orthogonalLoop=1;jettySize=auto;html=1;entryX=0;entryY=0;entryDx=0;entryDy=0;" parent="1" source="fvsf73NYnKq7ikZgamPG-4" target="fvsf73NYnKq7ikZgamPG-35" edge="1">
          <mxGeometry relative="1" as="geometry" />
        </mxCell>
        <mxCell id="fvsf73NYnKq7ikZgamPG-4" value="E-commerce Application" style="shape=umlFrame;whiteSpace=wrap;html=1;pointerEvents=0;width=180;height=50;" parent="1" vertex="1">
          <mxGeometry x="95" y="120" width="645" height="660" as="geometry" />
        </mxCell>
        <mxCell id="fvsf73NYnKq7ikZgamPG-61" style="edgeStyle=orthogonalEdgeStyle;rounded=0;orthogonalLoop=1;jettySize=auto;html=1;entryX=0.25;entryY=0;entryDx=0;entryDy=0;" parent="1" source="fvsf73NYnKq7ikZgamPG-5" target="fvsf73NYnKq7ikZgamPG-41" edge="1">
          <mxGeometry relative="1" as="geometry" />
        </mxCell>
        <mxCell id="HmwjEMk2K1eWJ_mtlo-p-3" style="edgeStyle=orthogonalEdgeStyle;rounded=0;orthogonalLoop=1;jettySize=auto;html=1;entryX=1;entryY=0.25;entryDx=0;entryDy=0;endArrow=open;endFill=0;" edge="1" parent="1" source="fvsf73NYnKq7ikZgamPG-5" target="fvsf73NYnKq7ikZgamPG-56">
          <mxGeometry relative="1" as="geometry" />
        </mxCell>
        <mxCell id="fvsf73NYnKq7ikZgamPG-5" value="&lt;div&gt;Browse&lt;/div&gt;" style="html=1;align=center;verticalAlign=top;rounded=1;absoluteArcSize=1;arcSize=10;dashed=0;whiteSpace=wrap;" parent="1" vertex="1">
          <mxGeometry x="321" y="287.5" width="135" height="30" as="geometry" />
        </mxCell>
        <mxCell id="fvsf73NYnKq7ikZgamPG-54" style="edgeStyle=orthogonalEdgeStyle;rounded=0;orthogonalLoop=1;jettySize=auto;html=1;" parent="1" source="fvsf73NYnKq7ikZgamPG-6" target="fvsf73NYnKq7ikZgamPG-43" edge="1">
          <mxGeometry relative="1" as="geometry" />
        </mxCell>
        <mxCell id="fvsf73NYnKq7ikZgamPG-6" value="Add Item To cart" style="html=1;align=center;verticalAlign=top;rounded=1;absoluteArcSize=1;arcSize=10;dashed=0;whiteSpace=wrap;" parent="1" vertex="1">
          <mxGeometry x="513" y="413" width="140" height="35" as="geometry" />
        </mxCell>
        <mxCell id="fvsf73NYnKq7ikZgamPG-34" value="Login" style="text;html=1;align=center;verticalAlign=middle;resizable=0;points=[];autosize=1;strokeColor=none;fillColor=none;" parent="1" vertex="1">
          <mxGeometry x="30" y="180" width="50" height="30" as="geometry" />
        </mxCell>
        <mxCell id="fvsf73NYnKq7ikZgamPG-35" value="" style="ellipse;html=1;shape=endState;fillColor=#000000;strokeColor=#ff0000;" parent="1" vertex="1">
          <mxGeometry x="790" y="430" width="30" height="30" as="geometry" />
        </mxCell>
        <mxCell id="fvsf73NYnKq7ikZgamPG-37" value="Order&amp;nbsp;&lt;div&gt;Confirmation&lt;/div&gt;" style="text;html=1;align=center;verticalAlign=middle;resizable=0;points=[];autosize=1;strokeColor=none;fillColor=none;" parent="1" vertex="1">
          <mxGeometry x="750" y="355" width="90" height="40" as="geometry" />
        </mxCell>
        <mxCell id="fvsf73NYnKq7ikZgamPG-39" value="" style="ellipse;html=1;shape=startState;fillColor=#000000;strokeColor=#ff0000;" parent="1" vertex="1">
          <mxGeometry x="203" y="267.5" width="30" height="30" as="geometry" />
        </mxCell>
        <mxCell id="fvsf73NYnKq7ikZgamPG-40" value="" style="edgeStyle=orthogonalEdgeStyle;html=1;verticalAlign=bottom;endArrow=open;endSize=8;strokeColor=#ff0000;rounded=0;entryX=0;entryY=0.5;entryDx=0;entryDy=0;" parent="1" source="fvsf73NYnKq7ikZgamPG-39" target="fvsf73NYnKq7ikZgamPG-5" edge="1">
          <mxGeometry relative="1" as="geometry">
            <mxPoint x="218" y="357.5" as="targetPoint" />
          </mxGeometry>
        </mxCell>
        <mxCell id="fvsf73NYnKq7ikZgamPG-47" style="edgeStyle=orthogonalEdgeStyle;rounded=0;orthogonalLoop=1;jettySize=auto;html=1;exitX=0.674;exitY=0.967;exitDx=0;exitDy=0;exitPerimeter=0;" parent="1" source="fvsf73NYnKq7ikZgamPG-5" target="fvsf73NYnKq7ikZgamPG-6" edge="1">
          <mxGeometry relative="1" as="geometry" />
        </mxCell>
        <mxCell id="HmwjEMk2K1eWJ_mtlo-p-1" style="edgeStyle=orthogonalEdgeStyle;rounded=0;orthogonalLoop=1;jettySize=auto;html=1;entryX=0;entryY=0.75;entryDx=0;entryDy=0;endArrow=open;endFill=0;" edge="1" parent="1" source="fvsf73NYnKq7ikZgamPG-41" target="fvsf73NYnKq7ikZgamPG-6">
          <mxGeometry relative="1" as="geometry" />
        </mxCell>
        <mxCell id="fvsf73NYnKq7ikZgamPG-41" value="View Item" style="html=1;align=center;verticalAlign=top;rounded=1;absoluteArcSize=1;arcSize=10;dashed=0;whiteSpace=wrap;" parent="1" vertex="1">
          <mxGeometry x="248" y="413" width="140" height="39" as="geometry" />
        </mxCell>
        <mxCell id="fvsf73NYnKq7ikZgamPG-62" style="edgeStyle=orthogonalEdgeStyle;rounded=0;orthogonalLoop=1;jettySize=auto;html=1;entryX=0;entryY=0.5;entryDx=0;entryDy=0;exitX=1;exitY=0.5;exitDx=0;exitDy=0;endArrow=open;endFill=0;" parent="1" source="fvsf73NYnKq7ikZgamPG-64" target="fvsf73NYnKq7ikZgamPG-43" edge="1">
          <mxGeometry relative="1" as="geometry">
            <Array as="points">
              <mxPoint x="493" y="498" />
              <mxPoint x="493" y="495" />
            </Array>
          </mxGeometry>
        </mxCell>
        <mxCell id="fvsf73NYnKq7ikZgamPG-55" style="edgeStyle=orthogonalEdgeStyle;rounded=0;orthogonalLoop=1;jettySize=auto;html=1;" parent="1" source="fvsf73NYnKq7ikZgamPG-43" target="fvsf73NYnKq7ikZgamPG-44" edge="1">
          <mxGeometry relative="1" as="geometry" />
        </mxCell>
        <mxCell id="fvsf73NYnKq7ikZgamPG-43" value="View Chart" style="html=1;align=center;verticalAlign=top;rounded=1;absoluteArcSize=1;arcSize=10;dashed=0;whiteSpace=wrap;" parent="1" vertex="1">
          <mxGeometry x="513" y="477.5" width="140" height="35" as="geometry" />
        </mxCell>
        <mxCell id="fvsf73NYnKq7ikZgamPG-57" style="edgeStyle=orthogonalEdgeStyle;rounded=0;orthogonalLoop=1;jettySize=auto;html=1;entryX=0.5;entryY=0;entryDx=0;entryDy=0;" parent="1" source="fvsf73NYnKq7ikZgamPG-44" target="fvsf73NYnKq7ikZgamPG-56" edge="1">
          <mxGeometry relative="1" as="geometry" />
        </mxCell>
        <mxCell id="fvsf73NYnKq7ikZgamPG-44" value="Remove Item" style="html=1;align=center;verticalAlign=top;rounded=1;absoluteArcSize=1;arcSize=10;dashed=0;whiteSpace=wrap;" parent="1" vertex="1">
          <mxGeometry x="513" y="568.5" width="140" height="37" as="geometry" />
        </mxCell>
        <mxCell id="fvsf73NYnKq7ikZgamPG-63" style="edgeStyle=orthogonalEdgeStyle;rounded=0;orthogonalLoop=1;jettySize=auto;html=1;" parent="1" source="fvsf73NYnKq7ikZgamPG-56" edge="1">
          <mxGeometry relative="1" as="geometry">
            <mxPoint x="383" y="287.5" as="targetPoint" />
            <Array as="points">
              <mxPoint x="693" y="674.5" />
              <mxPoint x="693" y="227.5" />
              <mxPoint x="383" y="227.5" />
              <mxPoint x="383" y="287.5" />
            </Array>
          </mxGeometry>
        </mxCell>
        <mxCell id="HmwjEMk2K1eWJ_mtlo-p-5" style="edgeStyle=orthogonalEdgeStyle;rounded=0;orthogonalLoop=1;jettySize=auto;html=1;entryX=1;entryY=0.25;entryDx=0;entryDy=0;" edge="1" parent="1" source="fvsf73NYnKq7ikZgamPG-56" target="HmwjEMk2K1eWJ_mtlo-p-4">
          <mxGeometry relative="1" as="geometry" />
        </mxCell>
        <mxCell id="fvsf73NYnKq7ikZgamPG-56" value="Browse for more items&lt;div&gt;Go to check out&lt;/div&gt;" style="html=1;align=center;verticalAlign=top;rounded=1;absoluteArcSize=1;arcSize=10;dashed=0;whiteSpace=wrap;" parent="1" vertex="1">
          <mxGeometry x="513" y="655.5" width="140" height="37" as="geometry" />
        </mxCell>
        <mxCell id="fvsf73NYnKq7ikZgamPG-65" value="" style="edgeStyle=orthogonalEdgeStyle;rounded=0;orthogonalLoop=1;jettySize=auto;html=1;entryX=0.5;entryY=0;entryDx=0;entryDy=0;" parent="1" source="fvsf73NYnKq7ikZgamPG-41" target="fvsf73NYnKq7ikZgamPG-64" edge="1">
          <mxGeometry relative="1" as="geometry">
            <mxPoint x="318" y="452" as="sourcePoint" />
            <mxPoint x="318" y="550" as="targetPoint" />
          </mxGeometry>
        </mxCell>
        <mxCell id="HmwjEMk2K1eWJ_mtlo-p-10" style="edgeStyle=orthogonalEdgeStyle;rounded=0;orthogonalLoop=1;jettySize=auto;html=1;entryX=0.25;entryY=0;entryDx=0;entryDy=0;" edge="1" parent="1" source="fvsf73NYnKq7ikZgamPG-64" target="fvsf73NYnKq7ikZgamPG-5">
          <mxGeometry relative="1" as="geometry">
            <Array as="points">
              <mxPoint x="173" y="498" />
              <mxPoint x="173" y="220" />
              <mxPoint x="355" y="220" />
            </Array>
          </mxGeometry>
        </mxCell>
        <mxCell id="fvsf73NYnKq7ikZgamPG-64" value="" style="rhombus;whiteSpace=wrap;html=1;" parent="1" vertex="1">
          <mxGeometry x="295.5" y="477.5" width="45" height="40" as="geometry" />
        </mxCell>
        <mxCell id="fzyLY8SCgLOCydNj6O3c-1" value="Go Cart" style="text;html=1;align=center;verticalAlign=middle;resizable=0;points=[];autosize=1;strokeColor=none;fillColor=none;" parent="1" vertex="1">
          <mxGeometry x="393" y="470" width="70" height="30" as="geometry" />
        </mxCell>
        <mxCell id="fzyLY8SCgLOCydNj6O3c-2" value="Return To Browse" style="text;html=1;align=center;verticalAlign=middle;resizable=0;points=[];autosize=1;strokeColor=none;fillColor=none;" parent="1" vertex="1">
          <mxGeometry x="573" y="230" width="120" height="30" as="geometry" />
        </mxCell>
        <mxCell id="HmwjEMk2K1eWJ_mtlo-p-7" style="edgeStyle=orthogonalEdgeStyle;rounded=0;orthogonalLoop=1;jettySize=auto;html=1;entryX=0.5;entryY=0;entryDx=0;entryDy=0;" edge="1" parent="1" source="HmwjEMk2K1eWJ_mtlo-p-4" target="HmwjEMk2K1eWJ_mtlo-p-6">
          <mxGeometry relative="1" as="geometry" />
        </mxCell>
        <mxCell id="HmwjEMk2K1eWJ_mtlo-p-12" style="edgeStyle=orthogonalEdgeStyle;rounded=0;orthogonalLoop=1;jettySize=auto;html=1;entryX=0.5;entryY=0;entryDx=0;entryDy=0;" edge="1" parent="1" source="HmwjEMk2K1eWJ_mtlo-p-4" target="HmwjEMk2K1eWJ_mtlo-p-11">
          <mxGeometry relative="1" as="geometry" />
        </mxCell>
        <mxCell id="HmwjEMk2K1eWJ_mtlo-p-4" value="Check out" style="html=1;align=center;verticalAlign=top;rounded=1;absoluteArcSize=1;arcSize=10;dashed=0;whiteSpace=wrap;" vertex="1" parent="1">
          <mxGeometry x="313" y="560" width="140" height="39" as="geometry" />
        </mxCell>
        <mxCell id="HmwjEMk2K1eWJ_mtlo-p-6" value="Payment&amp;nbsp;" style="html=1;align=center;verticalAlign=top;rounded=1;absoluteArcSize=1;arcSize=10;dashed=0;whiteSpace=wrap;" vertex="1" parent="1">
          <mxGeometry x="313" y="692.5" width="140" height="39" as="geometry" />
        </mxCell>
        <mxCell id="HmwjEMk2K1eWJ_mtlo-p-11" value="Cancel Order" style="html=1;align=center;verticalAlign=top;rounded=1;absoluteArcSize=1;arcSize=10;dashed=0;whiteSpace=wrap;" vertex="1" parent="1">
          <mxGeometry x="158" y="620" width="140" height="39" as="geometry" />
        </mxCell>
      </root>
    </mxGraphModel>
  </diagram>
  <diagram id="wXPOKvLcGA430bJk3PY8" name="Class  Diagram">
    <mxGraphModel dx="2924" dy="1204" grid="1" gridSize="10" guides="1" tooltips="1" connect="1" arrows="1" fold="1" page="1" pageScale="1" pageWidth="850" pageHeight="1100" math="0" shadow="0">
      <root>
        <mxCell id="0" />
        <mxCell id="1" parent="0" />
        <mxCell id="mhLsJNHxSjNX2FMKfdnb-1" value="&lt;p style=&quot;line-height:1.38;margin-top:0pt;margin-bottom:0pt;&quot; dir=&quot;ltr&quot;&gt;&lt;/p&gt;&lt;p style=&quot;line-height:1.38;margin-top:0pt;margin-bottom:0pt;&quot; dir=&quot;ltr&quot;&gt;&lt;/p&gt;&lt;div&gt;&lt;/div&gt;&lt;span id=&quot;docs-internal-guid-652fb281-7fff-4f25-babf-408023eb0ea0&quot;&gt;&lt;font color=&quot;#000000&quot;&gt;&lt;span style=&quot;font-size: 11pt; font-family: Arial, sans-serif; background-color: transparent; font-weight: 700; font-variant-numeric: normal; font-variant-east-asian: normal; font-variant-alternates: normal; font-variant-position: normal; vertical-align: baseline; white-space-collapse: preserve;&quot;&gt;Class Diagram (10 points)&lt;/span&gt;&lt;span style=&quot;font-size: 11pt; font-family: Arial, sans-serif; background-color: transparent; font-variant-numeric: normal; font-variant-east-asian: normal; font-variant-alternates: normal; font-variant-position: normal; vertical-align: baseline; white-space-collapse: preserve;&quot;&gt;: Ensure it encompasses all required classes, their attributes, methods, and the relationships between them.&lt;/span&gt;&lt;/font&gt;&lt;/span&gt;&lt;br&gt;&lt;p&gt;&lt;/p&gt;&lt;span id=&quot;docs-internal-guid-567491aa-7fff-4974-984a-d7e0009d4702&quot;&gt;&lt;/span&gt;" style="rounded=0;whiteSpace=wrap;html=1;" parent="1" vertex="1">
          <mxGeometry x="-590" width="390" height="80" as="geometry" />
        </mxCell>
        <mxCell id="Sh50m7Tf0SWAmkx13xV9-15" style="edgeStyle=orthogonalEdgeStyle;rounded=0;orthogonalLoop=1;jettySize=auto;html=1;entryX=0.5;entryY=0;entryDx=0;entryDy=0;" edge="1" parent="1" source="yWD-ZxFcFlKbGBVl0Llf-9" target="Sh50m7Tf0SWAmkx13xV9-1">
          <mxGeometry relative="1" as="geometry" />
        </mxCell>
        <mxCell id="yWD-ZxFcFlKbGBVl0Llf-9" value="Customer" style="swimlane;fontStyle=1;align=center;verticalAlign=top;childLayout=stackLayout;horizontal=1;startSize=26;horizontalStack=0;resizeParent=1;resizeParentMax=0;resizeLast=0;collapsible=1;marginBottom=0;whiteSpace=wrap;html=1;" parent="1" vertex="1">
          <mxGeometry x="-742" y="150" width="160" height="310" as="geometry">
            <mxRectangle x="-590" y="450" width="100" height="30" as="alternateBounds" />
          </mxGeometry>
        </mxCell>
        <mxCell id="yWD-ZxFcFlKbGBVl0Llf-10" value="username: String" style="text;strokeColor=none;fillColor=default;align=left;verticalAlign=top;spacingLeft=4;spacingRight=4;overflow=hidden;rotatable=0;points=[[0,0.5],[1,0.5]];portConstraint=eastwest;whiteSpace=wrap;html=1;" parent="yWD-ZxFcFlKbGBVl0Llf-9" vertex="1">
          <mxGeometry y="26" width="160" height="26" as="geometry" />
        </mxCell>
        <mxCell id="yWD-ZxFcFlKbGBVl0Llf-13" value="password: String" style="text;strokeColor=none;fillColor=default;align=left;verticalAlign=top;spacingLeft=4;spacingRight=4;overflow=hidden;rotatable=0;points=[[0,0.5],[1,0.5]];portConstraint=eastwest;whiteSpace=wrap;html=1;" parent="yWD-ZxFcFlKbGBVl0Llf-9" vertex="1">
          <mxGeometry y="52" width="160" height="26" as="geometry" />
        </mxCell>
        <mxCell id="yWD-ZxFcFlKbGBVl0Llf-14" value="name: String&lt;div&gt;&lt;br&gt;&lt;/div&gt;" style="text;strokeColor=none;fillColor=default;align=left;verticalAlign=top;spacingLeft=4;spacingRight=4;overflow=hidden;rotatable=0;points=[[0,0.5],[1,0.5]];portConstraint=eastwest;whiteSpace=wrap;html=1;" parent="yWD-ZxFcFlKbGBVl0Llf-9" vertex="1">
          <mxGeometry y="78" width="160" height="26" as="geometry" />
        </mxCell>
        <mxCell id="28xQrK4vtEdsUdEYLXeN-1" value="&lt;div&gt;phoneNumber: String&lt;/div&gt;" style="text;strokeColor=none;fillColor=default;align=left;verticalAlign=top;spacingLeft=4;spacingRight=4;overflow=hidden;rotatable=0;points=[[0,0.5],[1,0.5]];portConstraint=eastwest;whiteSpace=wrap;html=1;" vertex="1" parent="yWD-ZxFcFlKbGBVl0Llf-9">
          <mxGeometry y="104" width="160" height="26" as="geometry" />
        </mxCell>
        <mxCell id="ssVENBf26v1cpPheurNr-2" value="&lt;div&gt;email: String&lt;/div&gt;" style="text;strokeColor=none;fillColor=default;align=left;verticalAlign=top;spacingLeft=4;spacingRight=4;overflow=hidden;rotatable=0;points=[[0,0.5],[1,0.5]];portConstraint=eastwest;whiteSpace=wrap;html=1;" parent="yWD-ZxFcFlKbGBVl0Llf-9" vertex="1">
          <mxGeometry y="130" width="160" height="26" as="geometry" />
        </mxCell>
        <mxCell id="ssVENBf26v1cpPheurNr-3" value="&lt;div&gt;postalAddress: String&lt;/div&gt;" style="text;strokeColor=none;fillColor=default;align=left;verticalAlign=top;spacingLeft=4;spacingRight=4;overflow=hidden;rotatable=0;points=[[0,0.5],[1,0.5]];portConstraint=eastwest;whiteSpace=wrap;html=1;" parent="yWD-ZxFcFlKbGBVl0Llf-9" vertex="1">
          <mxGeometry y="156" width="160" height="26" as="geometry" />
        </mxCell>
        <mxCell id="yWD-ZxFcFlKbGBVl0Llf-11" value="" style="line;strokeWidth=1;fillColor=none;align=left;verticalAlign=middle;spacingTop=-1;spacingLeft=3;spacingRight=3;rotatable=0;labelPosition=right;points=[];portConstraint=eastwest;strokeColor=inherit;" parent="yWD-ZxFcFlKbGBVl0Llf-9" vertex="1">
          <mxGeometry y="182" width="160" height="8" as="geometry" />
        </mxCell>
        <mxCell id="yWD-ZxFcFlKbGBVl0Llf-12" value="Register: String" style="text;strokeColor=none;fillColor=default;align=left;verticalAlign=top;spacingLeft=4;spacingRight=4;overflow=hidden;rotatable=0;points=[[0,0.5],[1,0.5]];portConstraint=eastwest;whiteSpace=wrap;html=1;" parent="yWD-ZxFcFlKbGBVl0Llf-9" vertex="1">
          <mxGeometry y="190" width="160" height="26" as="geometry" />
        </mxCell>
        <mxCell id="yWD-ZxFcFlKbGBVl0Llf-15" value="Login: (username: string, Password: boolean)&lt;div&gt;&lt;br&gt;&lt;/div&gt;" style="text;strokeColor=none;fillColor=default;align=left;verticalAlign=top;spacingLeft=4;spacingRight=4;overflow=hidden;rotatable=0;points=[[0,0.5],[1,0.5]];portConstraint=eastwest;whiteSpace=wrap;html=1;" parent="yWD-ZxFcFlKbGBVl0Llf-9" vertex="1">
          <mxGeometry y="216" width="160" height="45" as="geometry" />
        </mxCell>
        <mxCell id="yWD-ZxFcFlKbGBVl0Llf-16" value="UpdateProfile: name, email, password" style="text;strokeColor=none;fillColor=default;align=left;verticalAlign=top;spacingLeft=4;spacingRight=4;overflow=hidden;rotatable=0;points=[[0,0.5],[1,0.5]];portConstraint=eastwest;whiteSpace=wrap;html=1;" parent="yWD-ZxFcFlKbGBVl0Llf-9" vertex="1">
          <mxGeometry y="261" width="160" height="49" as="geometry" />
        </mxCell>
        <mxCell id="yWD-ZxFcFlKbGBVl0Llf-18" value="Retail Store" style="swimlane;fontStyle=1;align=center;verticalAlign=top;childLayout=stackLayout;horizontal=1;startSize=26;horizontalStack=0;resizeParent=1;resizeParentMax=0;resizeLast=0;collapsible=1;marginBottom=0;whiteSpace=wrap;html=1;" parent="1" vertex="1">
          <mxGeometry x="-427" y="440" width="160" height="60" as="geometry">
            <mxRectangle x="-590" y="450" width="100" height="30" as="alternateBounds" />
          </mxGeometry>
        </mxCell>
        <mxCell id="yWD-ZxFcFlKbGBVl0Llf-22" value="" style="line;strokeWidth=1;fillColor=none;align=left;verticalAlign=middle;spacingTop=-1;spacingLeft=3;spacingRight=3;rotatable=0;labelPosition=right;points=[];portConstraint=eastwest;strokeColor=inherit;" parent="yWD-ZxFcFlKbGBVl0Llf-18" vertex="1">
          <mxGeometry y="26" width="160" height="8" as="geometry" />
        </mxCell>
        <mxCell id="yWD-ZxFcFlKbGBVl0Llf-23" value="cancelOrder: orderNumber&amp;nbsp;" style="text;strokeColor=none;fillColor=default;align=left;verticalAlign=top;spacingLeft=4;spacingRight=4;overflow=hidden;rotatable=0;points=[[0,0.5],[1,0.5]];portConstraint=eastwest;whiteSpace=wrap;html=1;" parent="yWD-ZxFcFlKbGBVl0Llf-18" vertex="1">
          <mxGeometry y="34" width="160" height="26" as="geometry" />
        </mxCell>
        <mxCell id="Sh50m7Tf0SWAmkx13xV9-18" style="edgeStyle=orthogonalEdgeStyle;rounded=0;orthogonalLoop=1;jettySize=auto;html=1;" edge="1" parent="1" source="yWD-ZxFcFlKbGBVl0Llf-30" target="ssVENBf26v1cpPheurNr-20">
          <mxGeometry relative="1" as="geometry">
            <mxPoint x="-237" y="520" as="targetPoint" />
            <Array as="points">
              <mxPoint x="-187" y="480" />
              <mxPoint x="-187" y="480" />
            </Array>
          </mxGeometry>
        </mxCell>
        <mxCell id="yWD-ZxFcFlKbGBVl0Llf-30" value="Shoping Cart" style="swimlane;fontStyle=1;align=center;verticalAlign=top;childLayout=stackLayout;horizontal=1;startSize=26;horizontalStack=0;resizeParent=1;resizeParentMax=0;resizeLast=0;collapsible=1;marginBottom=0;whiteSpace=wrap;html=1;" parent="1" vertex="1">
          <mxGeometry x="-267" y="140" width="160" height="164" as="geometry">
            <mxRectangle x="-590" y="450" width="100" height="30" as="alternateBounds" />
          </mxGeometry>
        </mxCell>
        <mxCell id="8ZGgSr7k4u4SUatjkUYZ-1" value="items: List&amp;lt;Items&amp;gt;" style="text;strokeColor=none;fillColor=default;align=left;verticalAlign=top;spacingLeft=4;spacingRight=4;overflow=hidden;rotatable=0;points=[[0,0.5],[1,0.5]];portConstraint=eastwest;whiteSpace=wrap;html=1;" vertex="1" parent="yWD-ZxFcFlKbGBVl0Llf-30">
          <mxGeometry y="26" width="160" height="26" as="geometry" />
        </mxCell>
        <mxCell id="yWD-ZxFcFlKbGBVl0Llf-36" value="" style="line;strokeWidth=1;fillColor=none;align=left;verticalAlign=middle;spacingTop=-1;spacingLeft=3;spacingRight=3;rotatable=0;labelPosition=right;points=[];portConstraint=eastwest;strokeColor=inherit;" parent="yWD-ZxFcFlKbGBVl0Llf-30" vertex="1">
          <mxGeometry y="52" width="160" height="8" as="geometry" />
        </mxCell>
        <mxCell id="yWD-ZxFcFlKbGBVl0Llf-32" value="addItem:" style="text;strokeColor=none;fillColor=default;align=left;verticalAlign=top;spacingLeft=4;spacingRight=4;overflow=hidden;rotatable=0;points=[[0,0.5],[1,0.5]];portConstraint=eastwest;whiteSpace=wrap;html=1;" parent="yWD-ZxFcFlKbGBVl0Llf-30" vertex="1">
          <mxGeometry y="60" width="160" height="26" as="geometry" />
        </mxCell>
        <mxCell id="8ZGgSr7k4u4SUatjkUYZ-2" value="removeItem:" style="text;strokeColor=none;fillColor=default;align=left;verticalAlign=top;spacingLeft=4;spacingRight=4;overflow=hidden;rotatable=0;points=[[0,0.5],[1,0.5]];portConstraint=eastwest;whiteSpace=wrap;html=1;" vertex="1" parent="yWD-ZxFcFlKbGBVl0Llf-30">
          <mxGeometry y="86" width="160" height="26" as="geometry" />
        </mxCell>
        <mxCell id="8ZGgSr7k4u4SUatjkUYZ-3" value="viewCart:" style="text;strokeColor=none;fillColor=default;align=left;verticalAlign=top;spacingLeft=4;spacingRight=4;overflow=hidden;rotatable=0;points=[[0,0.5],[1,0.5]];portConstraint=eastwest;whiteSpace=wrap;html=1;" vertex="1" parent="yWD-ZxFcFlKbGBVl0Llf-30">
          <mxGeometry y="112" width="160" height="26" as="geometry" />
        </mxCell>
        <mxCell id="8ZGgSr7k4u4SUatjkUYZ-4" value="checkout:" style="text;strokeColor=none;fillColor=default;align=left;verticalAlign=top;spacingLeft=4;spacingRight=4;overflow=hidden;rotatable=0;points=[[0,0.5],[1,0.5]];portConstraint=eastwest;whiteSpace=wrap;html=1;" vertex="1" parent="yWD-ZxFcFlKbGBVl0Llf-30">
          <mxGeometry y="138" width="160" height="26" as="geometry" />
        </mxCell>
        <mxCell id="ssVENBf26v1cpPheurNr-20" value="Item" style="swimlane;fontStyle=1;align=center;verticalAlign=top;childLayout=stackLayout;horizontal=1;startSize=26;horizontalStack=0;resizeParent=1;resizeParentMax=0;resizeLast=0;collapsible=1;marginBottom=0;whiteSpace=wrap;html=1;" parent="1" vertex="1">
          <mxGeometry x="-287" y="580" width="160" height="112" as="geometry">
            <mxRectangle x="-590" y="450" width="100" height="30" as="alternateBounds" />
          </mxGeometry>
        </mxCell>
        <mxCell id="ssVENBf26v1cpPheurNr-21" value="name: String" style="text;strokeColor=none;fillColor=default;align=left;verticalAlign=top;spacingLeft=4;spacingRight=4;overflow=hidden;rotatable=0;points=[[0,0.5],[1,0.5]];portConstraint=eastwest;whiteSpace=wrap;html=1;" parent="ssVENBf26v1cpPheurNr-20" vertex="1">
          <mxGeometry y="26" width="160" height="26" as="geometry" />
        </mxCell>
        <mxCell id="ssVENBf26v1cpPheurNr-22" value="picture: Image" style="text;strokeColor=none;fillColor=default;align=left;verticalAlign=top;spacingLeft=4;spacingRight=4;overflow=hidden;rotatable=0;points=[[0,0.5],[1,0.5]];portConstraint=eastwest;whiteSpace=wrap;html=1;" parent="ssVENBf26v1cpPheurNr-20" vertex="1">
          <mxGeometry y="52" width="160" height="26" as="geometry" />
        </mxCell>
        <mxCell id="ssVENBf26v1cpPheurNr-23" value="price: Double&amp;nbsp;" style="text;strokeColor=none;fillColor=default;align=left;verticalAlign=top;spacingLeft=4;spacingRight=4;overflow=hidden;rotatable=0;points=[[0,0.5],[1,0.5]];portConstraint=eastwest;whiteSpace=wrap;html=1;" parent="ssVENBf26v1cpPheurNr-20" vertex="1">
          <mxGeometry y="78" width="160" height="26" as="geometry" />
        </mxCell>
        <mxCell id="ssVENBf26v1cpPheurNr-26" value="" style="line;strokeWidth=1;fillColor=none;align=left;verticalAlign=middle;spacingTop=-1;spacingLeft=3;spacingRight=3;rotatable=0;labelPosition=right;points=[];portConstraint=eastwest;strokeColor=inherit;" parent="ssVENBf26v1cpPheurNr-20" vertex="1">
          <mxGeometry y="104" width="160" height="8" as="geometry" />
        </mxCell>
        <mxCell id="Sh50m7Tf0SWAmkx13xV9-21" style="edgeStyle=orthogonalEdgeStyle;rounded=0;orthogonalLoop=1;jettySize=auto;html=1;entryX=0;entryY=0.5;entryDx=0;entryDy=0;" edge="1" parent="1" source="Sh50m7Tf0SWAmkx13xV9-1" target="ssVENBf26v1cpPheurNr-23">
          <mxGeometry relative="1" as="geometry">
            <mxPoint x="-397" y="610" as="targetPoint" />
          </mxGeometry>
        </mxCell>
        <mxCell id="Sh50m7Tf0SWAmkx13xV9-1" value="Order" style="swimlane;fontStyle=1;align=center;verticalAlign=top;childLayout=stackLayout;horizontal=1;startSize=26;horizontalStack=0;resizeParent=1;resizeParentMax=0;resizeLast=0;collapsible=1;marginBottom=0;whiteSpace=wrap;html=1;" vertex="1" parent="1">
          <mxGeometry x="-742" y="570" width="160" height="242" as="geometry">
            <mxRectangle x="-590" y="450" width="100" height="30" as="alternateBounds" />
          </mxGeometry>
        </mxCell>
        <mxCell id="Sh50m7Tf0SWAmkx13xV9-2" value="orderNumber: String" style="text;strokeColor=none;fillColor=default;align=left;verticalAlign=top;spacingLeft=4;spacingRight=4;overflow=hidden;rotatable=0;points=[[0,0.5],[1,0.5]];portConstraint=eastwest;whiteSpace=wrap;html=1;" vertex="1" parent="Sh50m7Tf0SWAmkx13xV9-1">
          <mxGeometry y="26" width="160" height="26" as="geometry" />
        </mxCell>
        <mxCell id="Sh50m7Tf0SWAmkx13xV9-11" value="custommerName: String" style="text;strokeColor=none;fillColor=default;align=left;verticalAlign=top;spacingLeft=4;spacingRight=4;overflow=hidden;rotatable=0;points=[[0,0.5],[1,0.5]];portConstraint=eastwest;whiteSpace=wrap;html=1;" vertex="1" parent="Sh50m7Tf0SWAmkx13xV9-1">
          <mxGeometry y="52" width="160" height="26" as="geometry" />
        </mxCell>
        <mxCell id="Sh50m7Tf0SWAmkx13xV9-10" value="items: List&amp;lt;Item&amp;gt;&lt;div&gt;&lt;span style=&quot;white-space: pre;&quot;&gt;&#x9;&lt;/span&gt;&lt;br&gt;&lt;/div&gt;" style="text;strokeColor=none;fillColor=default;align=left;verticalAlign=top;spacingLeft=4;spacingRight=4;overflow=hidden;rotatable=0;points=[[0,0.5],[1,0.5]];portConstraint=eastwest;whiteSpace=wrap;html=1;" vertex="1" parent="Sh50m7Tf0SWAmkx13xV9-1">
          <mxGeometry y="78" width="160" height="26" as="geometry" />
        </mxCell>
        <mxCell id="Sh50m7Tf0SWAmkx13xV9-9" value="totalPrice: Double" style="text;strokeColor=none;fillColor=default;align=left;verticalAlign=top;spacingLeft=4;spacingRight=4;overflow=hidden;rotatable=0;points=[[0,0.5],[1,0.5]];portConstraint=eastwest;whiteSpace=wrap;html=1;" vertex="1" parent="Sh50m7Tf0SWAmkx13xV9-1">
          <mxGeometry y="104" width="160" height="26" as="geometry" />
        </mxCell>
        <mxCell id="Sh50m7Tf0SWAmkx13xV9-8" value="postalAddress: String" style="text;strokeColor=none;fillColor=default;align=left;verticalAlign=top;spacingLeft=4;spacingRight=4;overflow=hidden;rotatable=0;points=[[0,0.5],[1,0.5]];portConstraint=eastwest;whiteSpace=wrap;html=1;" vertex="1" parent="Sh50m7Tf0SWAmkx13xV9-1">
          <mxGeometry y="130" width="160" height="26" as="geometry" />
        </mxCell>
        <mxCell id="Sh50m7Tf0SWAmkx13xV9-38" value="payment: Payment" style="text;strokeColor=none;fillColor=default;align=left;verticalAlign=top;spacingLeft=4;spacingRight=4;overflow=hidden;rotatable=0;points=[[0,0.5],[1,0.5]];portConstraint=eastwest;whiteSpace=wrap;html=1;" vertex="1" parent="Sh50m7Tf0SWAmkx13xV9-1">
          <mxGeometry y="156" width="160" height="26" as="geometry" />
        </mxCell>
        <mxCell id="Sh50m7Tf0SWAmkx13xV9-3" value="" style="line;strokeWidth=1;fillColor=none;align=left;verticalAlign=middle;spacingTop=-1;spacingLeft=3;spacingRight=3;rotatable=0;labelPosition=right;points=[];portConstraint=eastwest;strokeColor=inherit;" vertex="1" parent="Sh50m7Tf0SWAmkx13xV9-1">
          <mxGeometry y="182" width="160" height="8" as="geometry" />
        </mxCell>
        <mxCell id="Sh50m7Tf0SWAmkx13xV9-6" value="generateOrder:" style="text;strokeColor=none;fillColor=default;align=left;verticalAlign=top;spacingLeft=4;spacingRight=4;overflow=hidden;rotatable=0;points=[[0,0.5],[1,0.5]];portConstraint=eastwest;whiteSpace=wrap;html=1;" vertex="1" parent="Sh50m7Tf0SWAmkx13xV9-1">
          <mxGeometry y="190" width="160" height="26" as="geometry" />
        </mxCell>
        <mxCell id="Sh50m7Tf0SWAmkx13xV9-7" value="cancelOrder:" style="text;strokeColor=none;fillColor=default;align=left;verticalAlign=top;spacingLeft=4;spacingRight=4;overflow=hidden;rotatable=0;points=[[0,0.5],[1,0.5]];portConstraint=eastwest;whiteSpace=wrap;html=1;" vertex="1" parent="Sh50m7Tf0SWAmkx13xV9-1">
          <mxGeometry y="216" width="160" height="26" as="geometry" />
        </mxCell>
        <mxCell id="Sh50m7Tf0SWAmkx13xV9-13" value="1" style="text;html=1;align=center;verticalAlign=middle;resizable=0;points=[];autosize=1;strokeColor=none;fillColor=none;" vertex="1" parent="1">
          <mxGeometry x="-572" y="188" width="30" height="30" as="geometry" />
        </mxCell>
        <mxCell id="Sh50m7Tf0SWAmkx13xV9-14" value="0..1" style="text;html=1;align=center;verticalAlign=middle;resizable=0;points=[];autosize=1;strokeColor=none;fillColor=none;" vertex="1" parent="1">
          <mxGeometry x="-307" y="188" width="40" height="30" as="geometry" />
        </mxCell>
        <mxCell id="Sh50m7Tf0SWAmkx13xV9-16" value="1" style="text;html=1;align=center;verticalAlign=middle;resizable=0;points=[];autosize=1;strokeColor=none;fillColor=none;" vertex="1" parent="1">
          <mxGeometry x="-662" y="460" width="30" height="30" as="geometry" />
        </mxCell>
        <mxCell id="Sh50m7Tf0SWAmkx13xV9-17" value="0..*" style="text;html=1;align=center;verticalAlign=middle;resizable=0;points=[];autosize=1;strokeColor=none;fillColor=none;" vertex="1" parent="1">
          <mxGeometry x="-662" y="530" width="40" height="30" as="geometry" />
        </mxCell>
        <mxCell id="Sh50m7Tf0SWAmkx13xV9-19" value="1..*" style="text;html=1;align=center;verticalAlign=middle;resizable=0;points=[];autosize=1;strokeColor=none;fillColor=none;" vertex="1" parent="1">
          <mxGeometry x="-237" y="550" width="40" height="30" as="geometry" />
        </mxCell>
        <mxCell id="Sh50m7Tf0SWAmkx13xV9-20" value="1" style="text;html=1;align=center;verticalAlign=middle;resizable=0;points=[];autosize=1;strokeColor=none;fillColor=none;" vertex="1" parent="1">
          <mxGeometry x="-217" y="304" width="30" height="30" as="geometry" />
        </mxCell>
        <mxCell id="Sh50m7Tf0SWAmkx13xV9-22" value="1..*" style="text;html=1;align=center;verticalAlign=middle;resizable=0;points=[];autosize=1;strokeColor=none;fillColor=none;" vertex="1" parent="1">
          <mxGeometry x="-337" y="630" width="40" height="30" as="geometry" />
        </mxCell>
        <mxCell id="Sh50m7Tf0SWAmkx13xV9-23" value="1" style="text;html=1;align=center;verticalAlign=middle;resizable=0;points=[];autosize=1;strokeColor=none;fillColor=none;" vertex="1" parent="1">
          <mxGeometry x="-567" y="640" width="30" height="30" as="geometry" />
        </mxCell>
        <mxCell id="Sh50m7Tf0SWAmkx13xV9-24" style="edgeStyle=orthogonalEdgeStyle;rounded=0;orthogonalLoop=1;jettySize=auto;html=1;entryX=0;entryY=0.5;entryDx=0;entryDy=0;exitX=0.994;exitY=0.269;exitDx=0;exitDy=0;exitPerimeter=0;" edge="1" parent="1" source="yWD-ZxFcFlKbGBVl0Llf-14" target="yWD-ZxFcFlKbGBVl0Llf-18">
          <mxGeometry relative="1" as="geometry">
            <Array as="points">
              <mxPoint x="-520" y="235" />
              <mxPoint x="-520" y="470" />
            </Array>
          </mxGeometry>
        </mxCell>
        <mxCell id="Sh50m7Tf0SWAmkx13xV9-25" value="0..*" style="text;html=1;align=center;verticalAlign=middle;resizable=0;points=[];autosize=1;strokeColor=none;fillColor=none;" vertex="1" parent="1">
          <mxGeometry x="-582" y="250" width="40" height="30" as="geometry" />
        </mxCell>
        <mxCell id="Sh50m7Tf0SWAmkx13xV9-26" value="0..*" style="text;html=1;align=center;verticalAlign=middle;resizable=0;points=[];autosize=1;strokeColor=none;fillColor=none;" vertex="1" parent="1">
          <mxGeometry x="-472" y="440" width="40" height="30" as="geometry" />
        </mxCell>
        <mxCell id="Sh50m7Tf0SWAmkx13xV9-12" style="edgeStyle=orthogonalEdgeStyle;rounded=0;orthogonalLoop=1;jettySize=auto;html=1;entryX=0;entryY=0.5;entryDx=0;entryDy=0;" edge="1" parent="1" source="yWD-ZxFcFlKbGBVl0Llf-13" target="yWD-ZxFcFlKbGBVl0Llf-32">
          <mxGeometry relative="1" as="geometry">
            <mxPoint x="-382" y="215" as="targetPoint" />
          </mxGeometry>
        </mxCell>
        <mxCell id="Sh50m7Tf0SWAmkx13xV9-27" value="Payment" style="swimlane;fontStyle=1;align=center;verticalAlign=top;childLayout=stackLayout;horizontal=1;startSize=26;horizontalStack=0;resizeParent=1;resizeParentMax=0;resizeLast=0;collapsible=1;marginBottom=0;whiteSpace=wrap;html=1;" vertex="1" parent="1">
          <mxGeometry x="-497" y="860" width="160" height="210" as="geometry">
            <mxRectangle x="-590" y="450" width="100" height="30" as="alternateBounds" />
          </mxGeometry>
        </mxCell>
        <mxCell id="Sh50m7Tf0SWAmkx13xV9-28" value="carHoldeName: String" style="text;strokeColor=none;fillColor=default;align=left;verticalAlign=top;spacingLeft=4;spacingRight=4;overflow=hidden;rotatable=0;points=[[0,0.5],[1,0.5]];portConstraint=eastwest;whiteSpace=wrap;html=1;" vertex="1" parent="Sh50m7Tf0SWAmkx13xV9-27">
          <mxGeometry y="26" width="160" height="26" as="geometry" />
        </mxCell>
        <mxCell id="Sh50m7Tf0SWAmkx13xV9-29" value="CardNumber: String" style="text;strokeColor=none;fillColor=default;align=left;verticalAlign=top;spacingLeft=4;spacingRight=4;overflow=hidden;rotatable=0;points=[[0,0.5],[1,0.5]];portConstraint=eastwest;whiteSpace=wrap;html=1;" vertex="1" parent="Sh50m7Tf0SWAmkx13xV9-27">
          <mxGeometry y="52" width="160" height="26" as="geometry" />
        </mxCell>
        <mxCell id="Sh50m7Tf0SWAmkx13xV9-30" value="expirationDate: String" style="text;strokeColor=none;fillColor=default;align=left;verticalAlign=top;spacingLeft=4;spacingRight=4;overflow=hidden;rotatable=0;points=[[0,0.5],[1,0.5]];portConstraint=eastwest;whiteSpace=wrap;html=1;" vertex="1" parent="Sh50m7Tf0SWAmkx13xV9-27">
          <mxGeometry y="78" width="160" height="26" as="geometry" />
        </mxCell>
        <mxCell id="Sh50m7Tf0SWAmkx13xV9-31" value="securityCode: String" style="text;strokeColor=none;fillColor=default;align=left;verticalAlign=top;spacingLeft=4;spacingRight=4;overflow=hidden;rotatable=0;points=[[0,0.5],[1,0.5]];portConstraint=eastwest;whiteSpace=wrap;html=1;" vertex="1" parent="Sh50m7Tf0SWAmkx13xV9-27">
          <mxGeometry y="104" width="160" height="26" as="geometry" />
        </mxCell>
        <mxCell id="Sh50m7Tf0SWAmkx13xV9-33" value="&lt;div&gt;postalAddress: String&lt;/div&gt;" style="text;strokeColor=none;fillColor=default;align=left;verticalAlign=top;spacingLeft=4;spacingRight=4;overflow=hidden;rotatable=0;points=[[0,0.5],[1,0.5]];portConstraint=eastwest;whiteSpace=wrap;html=1;" vertex="1" parent="Sh50m7Tf0SWAmkx13xV9-27">
          <mxGeometry y="130" width="160" height="26" as="geometry" />
        </mxCell>
        <mxCell id="Sh50m7Tf0SWAmkx13xV9-34" value="" style="line;strokeWidth=1;fillColor=none;align=left;verticalAlign=middle;spacingTop=-1;spacingLeft=3;spacingRight=3;rotatable=0;labelPosition=right;points=[];portConstraint=eastwest;strokeColor=inherit;" vertex="1" parent="Sh50m7Tf0SWAmkx13xV9-27">
          <mxGeometry y="156" width="160" height="8" as="geometry" />
        </mxCell>
        <mxCell id="Sh50m7Tf0SWAmkx13xV9-35" value="processPayment(order: order): Boolean" style="text;strokeColor=none;fillColor=default;align=left;verticalAlign=top;spacingLeft=4;spacingRight=4;overflow=hidden;rotatable=0;points=[[0,0.5],[1,0.5]];portConstraint=eastwest;whiteSpace=wrap;html=1;" vertex="1" parent="Sh50m7Tf0SWAmkx13xV9-27">
          <mxGeometry y="164" width="160" height="46" as="geometry" />
        </mxCell>
        <mxCell id="Sh50m7Tf0SWAmkx13xV9-39" style="edgeStyle=orthogonalEdgeStyle;rounded=0;orthogonalLoop=1;jettySize=auto;html=1;entryX=0.625;entryY=-0.014;entryDx=0;entryDy=0;entryPerimeter=0;" edge="1" parent="1" source="Sh50m7Tf0SWAmkx13xV9-38" target="Sh50m7Tf0SWAmkx13xV9-27">
          <mxGeometry relative="1" as="geometry" />
        </mxCell>
        <mxCell id="Sh50m7Tf0SWAmkx13xV9-40" value="1" style="text;html=1;align=center;verticalAlign=middle;resizable=0;points=[];autosize=1;strokeColor=none;fillColor=none;" vertex="1" parent="1">
          <mxGeometry x="-585" y="738" width="30" height="30" as="geometry" />
        </mxCell>
        <mxCell id="Sh50m7Tf0SWAmkx13xV9-41" value="1" style="text;html=1;align=center;verticalAlign=middle;resizable=0;points=[];autosize=1;strokeColor=none;fillColor=none;" vertex="1" parent="1">
          <mxGeometry x="-425" y="828" width="30" height="30" as="geometry" />
        </mxCell>
      </root>
    </mxGraphModel>
  </diagram>
  <diagram id="GXd7wWYc3mvMzXPA2oHW" name="Sequence Diagram">
    <mxGraphModel dx="1430" dy="3030" grid="1" gridSize="10" guides="1" tooltips="1" connect="1" arrows="1" fold="1" page="1" pageScale="1" pageWidth="850" pageHeight="1100" math="0" shadow="0">
      <root>
        <mxCell id="0" />
        <mxCell id="1" parent="0" />
        <mxCell id="XFhCytXhQTles4i8MFk9-1" value="&lt;p style=&quot;line-height:1.38;margin-top:0pt;margin-bottom:0pt;&quot; dir=&quot;ltr&quot;&gt;&lt;/p&gt;&lt;p style=&quot;line-height:1.38;margin-top:0pt;margin-bottom:0pt;&quot; dir=&quot;ltr&quot;&gt;&lt;/p&gt;&lt;div&gt;&lt;p style=&quot;line-height:1.38;margin-top:0pt;margin-bottom:0pt;&quot; dir=&quot;ltr&quot;&gt;&lt;/p&gt;&lt;p style=&quot;line-height:1.38;margin-top:0pt;margin-bottom:0pt;&quot; dir=&quot;ltr&quot;&gt;&lt;/p&gt;&lt;div&gt;&lt;p style=&quot;line-height:1.38;margin-top:0pt;margin-bottom:0pt;&quot; dir=&quot;ltr&quot;&gt;&lt;/p&gt;&lt;div&gt;&lt;span id=&quot;docs-internal-guid-a1322280-7fff-90ae-96ec-21e9bae6ce07&quot;&gt;&lt;ol style=&quot;margin-top:0;margin-bottom:0;padding-inline-start:48px;&quot;&gt;&lt;li aria-level=&quot;1&quot; style=&quot;list-style-type: decimal; font-size: 11pt; font-family: Arial, sans-serif; background-color: transparent; font-variant-numeric: normal; font-variant-east-asian: normal; font-variant-alternates: normal; font-variant-position: normal; vertical-align: baseline; white-space: pre;&quot; dir=&quot;ltr&quot;&gt;&lt;p role=&quot;presentation&quot; style=&quot;line-height: 1.8; margin-top: 0pt; margin-bottom: 0pt;&quot; dir=&quot;ltr&quot;&gt;&lt;font color=&quot;#000000&quot;&gt;&lt;span style=&quot;font-size: 11pt; background-color: transparent; font-weight: 700; font-variant-numeric: normal; font-variant-east-asian: normal; font-variant-alternates: normal; font-variant-position: normal; vertical-align: baseline; text-wrap: wrap;&quot;&gt;Sequence Diagram (10 points)&lt;/span&gt;&lt;span style=&quot;font-size: 11pt; background-color: transparent; font-variant-numeric: normal; font-variant-east-asian: normal; font-variant-alternates: normal; font-variant-position: normal; vertical-align: baseline; text-wrap: wrap;&quot;&gt;: Present interactions between system objects for each use case.&lt;/span&gt;&lt;/font&gt;&lt;/p&gt;&lt;/li&gt;&lt;/ol&gt;&lt;/span&gt;&lt;/div&gt;&lt;p&gt;&lt;/p&gt;&lt;span id=&quot;docs-internal-guid-68c38844-7fff-d334-4487-28d21aceab67&quot;&gt;&lt;/span&gt;&lt;/div&gt;&lt;/div&gt;&lt;span id=&quot;docs-internal-guid-682cdb9b-7fff-9381-0b07-d901b3f3270a&quot;&gt;&lt;/span&gt;" style="rounded=0;whiteSpace=wrap;html=1;" parent="1" vertex="1">
          <mxGeometry x="160" y="-2190" width="545" height="60" as="geometry" />
        </mxCell>
        <mxCell id="PES1R1bx2U_6cO4VifAW-6" value="" style="shape=umlLifeline;perimeter=lifelinePerimeter;whiteSpace=wrap;html=1;container=1;dropTarget=0;collapsible=0;recursiveResize=0;outlineConnect=0;portConstraint=eastwest;newEdgeStyle={&quot;curved&quot;:0,&quot;rounded&quot;:0};participant=umlActor;" parent="1" vertex="1">
          <mxGeometry x="215" y="-2027.5" width="20" height="907.5" as="geometry" />
        </mxCell>
        <mxCell id="PES1R1bx2U_6cO4VifAW-8" value="" style="html=1;points=[[0,0,0,0,5],[0,1,0,0,-5],[1,0,0,0,5],[1,1,0,0,-5]];perimeter=orthogonalPerimeter;outlineConnect=0;targetShapes=umlLifeline;portConstraint=eastwest;newEdgeStyle={&quot;curved&quot;:0,&quot;rounded&quot;:0};" parent="PES1R1bx2U_6cO4VifAW-6" vertex="1">
          <mxGeometry x="5" y="70" width="10" height="830" as="geometry" />
        </mxCell>
        <mxCell id="PES1R1bx2U_6cO4VifAW-10" value="Customer" style="text;html=1;align=center;verticalAlign=middle;resizable=0;points=[];autosize=1;strokeColor=none;fillColor=none;" parent="1" vertex="1">
          <mxGeometry x="185" y="-2075" width="80" height="30" as="geometry" />
        </mxCell>
        <mxCell id="PES1R1bx2U_6cO4VifAW-14" value="E-Commerce Application" style="shape=umlLifeline;perimeter=lifelinePerimeter;whiteSpace=wrap;html=1;container=1;dropTarget=0;collapsible=0;recursiveResize=0;outlineConnect=0;portConstraint=eastwest;newEdgeStyle={&quot;curved&quot;:0,&quot;rounded&quot;:0};size=30;" parent="1" vertex="1">
          <mxGeometry x="355" y="-2000" width="140" height="880" as="geometry" />
        </mxCell>
        <mxCell id="FWICxyB5qI8mHUNmKvt1-29" value="" style="html=1;points=[[0,0,0,0,5],[0,1,0,0,-5],[1,0,0,0,5],[1,1,0,0,-5]];perimeter=orthogonalPerimeter;outlineConnect=0;targetShapes=umlLifeline;portConstraint=eastwest;newEdgeStyle={&quot;curved&quot;:0,&quot;rounded&quot;:0};" vertex="1" parent="PES1R1bx2U_6cO4VifAW-14">
          <mxGeometry x="65" y="42.5" width="10" height="87.5" as="geometry" />
        </mxCell>
        <mxCell id="B5JM20REGfs4NmhftQZL-12" value="Retail Store" style="shape=umlLifeline;perimeter=lifelinePerimeter;whiteSpace=wrap;html=1;container=1;dropTarget=0;collapsible=0;recursiveResize=0;outlineConnect=0;portConstraint=eastwest;newEdgeStyle={&quot;curved&quot;:0,&quot;rounded&quot;:0};size=30;" parent="1" vertex="1">
          <mxGeometry x="525" y="-2000" width="140" height="870" as="geometry" />
        </mxCell>
        <mxCell id="B5JM20REGfs4NmhftQZL-108" value="E-Commerce App" style="shape=umlFrame;whiteSpace=wrap;html=1;pointerEvents=0;recursiveResize=0;container=1;collapsible=0;width=160;" parent="1" vertex="1">
          <mxGeometry x="100" y="-2110" width="620" height="990" as="geometry" />
        </mxCell>
        <mxCell id="PES1R1bx2U_6cO4VifAW-15" value="" style="html=1;points=[[0,0,0,0,5],[0,1,0,0,-5],[1,0,0,0,5],[1,1,0,0,-5]];perimeter=orthogonalPerimeter;outlineConnect=0;targetShapes=umlLifeline;portConstraint=eastwest;newEdgeStyle={&quot;curved&quot;:0,&quot;rounded&quot;:0};" parent="B5JM20REGfs4NmhftQZL-108" vertex="1">
          <mxGeometry x="322.5" y="304" width="10" height="38" as="geometry" />
        </mxCell>
        <mxCell id="PES1R1bx2U_6cO4VifAW-22" value="" style="html=1;points=[[0,0,0,0,5],[0,1,0,0,-5],[1,0,0,0,5],[1,1,0,0,-5]];perimeter=orthogonalPerimeter;outlineConnect=0;targetShapes=umlLifeline;portConstraint=eastwest;newEdgeStyle={&quot;curved&quot;:0,&quot;rounded&quot;:0};" parent="B5JM20REGfs4NmhftQZL-108" vertex="1">
          <mxGeometry x="322.5" y="352" width="10" height="40" as="geometry" />
        </mxCell>
        <mxCell id="B5JM20REGfs4NmhftQZL-77" value="" style="html=1;points=[[0,0,0,0,5],[0,1,0,0,-5],[1,0,0,0,5],[1,1,0,0,-5]];perimeter=orthogonalPerimeter;outlineConnect=0;targetShapes=umlLifeline;portConstraint=eastwest;newEdgeStyle={&quot;curved&quot;:0,&quot;rounded&quot;:0};" parent="B5JM20REGfs4NmhftQZL-108" vertex="1">
          <mxGeometry x="322.5" y="732" width="10" height="40" as="geometry" />
        </mxCell>
        <mxCell id="B5JM20REGfs4NmhftQZL-13" value="" style="html=1;verticalAlign=bottom;endArrow=block;curved=0;rounded=0;exitX=1;exitY=0;exitDx=0;exitDy=5;exitPerimeter=0;fontSize=10;" parent="B5JM20REGfs4NmhftQZL-108" target="PES1R1bx2U_6cO4VifAW-15" edge="1">
          <mxGeometry x="-0.0588" y="77" width="80" relative="1" as="geometry">
            <mxPoint x="137.5" y="312" as="sourcePoint" />
            <mxPoint x="237.5" y="312" as="targetPoint" />
            <mxPoint as="offset" />
          </mxGeometry>
        </mxCell>
        <mxCell id="B5JM20REGfs4NmhftQZL-18" value="" style="html=1;verticalAlign=bottom;endArrow=block;curved=0;rounded=0;exitX=1;exitY=0;exitDx=0;exitDy=5;exitPerimeter=0;fontSize=10;" parent="B5JM20REGfs4NmhftQZL-108" edge="1">
          <mxGeometry x="-0.0588" y="77" width="80" relative="1" as="geometry">
            <mxPoint x="137.5" y="355" as="sourcePoint" />
            <mxPoint x="322.5" y="355" as="targetPoint" />
            <mxPoint as="offset" />
          </mxGeometry>
        </mxCell>
        <mxCell id="FWICxyB5qI8mHUNmKvt1-1" value="Browse Items" style="text;html=1;align=center;verticalAlign=middle;resizable=0;points=[];autosize=1;strokeColor=none;fillColor=none;fontSize=10;" vertex="1" parent="B5JM20REGfs4NmhftQZL-108">
          <mxGeometry x="192.5" y="290" width="80" height="30" as="geometry" />
        </mxCell>
        <mxCell id="B5JM20REGfs4NmhftQZL-31" style="edgeStyle=orthogonalEdgeStyle;rounded=0;orthogonalLoop=1;jettySize=auto;html=1;curved=0;dashed=1;" parent="B5JM20REGfs4NmhftQZL-108" edge="1">
          <mxGeometry relative="1" as="geometry">
            <mxPoint x="332.5" y="332" as="targetPoint" />
            <mxPoint x="492.5" y="332" as="sourcePoint" />
          </mxGeometry>
        </mxCell>
        <mxCell id="PES1R1bx2U_6cO4VifAW-23" value="" style="html=1;points=[[0,0,0,0,5],[0,1,0,0,-5],[1,0,0,0,5],[1,1,0,0,-5]];perimeter=orthogonalPerimeter;outlineConnect=0;targetShapes=umlLifeline;portConstraint=eastwest;newEdgeStyle={&quot;curved&quot;:0,&quot;rounded&quot;:0};" parent="B5JM20REGfs4NmhftQZL-108" vertex="1">
          <mxGeometry x="322.5" y="402" width="10" height="78" as="geometry" />
        </mxCell>
        <mxCell id="B5JM20REGfs4NmhftQZL-41" style="edgeStyle=orthogonalEdgeStyle;rounded=0;orthogonalLoop=1;jettySize=auto;html=1;curved=0;" parent="B5JM20REGfs4NmhftQZL-108" target="PES1R1bx2U_6cO4VifAW-23" edge="1">
          <mxGeometry relative="1" as="geometry">
            <Array as="points">
              <mxPoint x="142.5" y="413" />
            </Array>
            <mxPoint x="142.5" y="412" as="sourcePoint" />
            <mxPoint x="302.5" y="412" as="targetPoint" />
          </mxGeometry>
        </mxCell>
        <mxCell id="FWICxyB5qI8mHUNmKvt1-4" value="Add to Cart" style="text;html=1;align=center;verticalAlign=middle;resizable=0;points=[];autosize=1;strokeColor=none;fillColor=none;fontSize=10;" vertex="1" parent="B5JM20REGfs4NmhftQZL-108">
          <mxGeometry x="197.5" y="390" width="70" height="30" as="geometry" />
        </mxCell>
        <mxCell id="B5JM20REGfs4NmhftQZL-52" style="edgeStyle=orthogonalEdgeStyle;rounded=0;orthogonalLoop=1;jettySize=auto;html=1;curved=0;dashed=1;" parent="B5JM20REGfs4NmhftQZL-108" edge="1">
          <mxGeometry relative="1" as="geometry">
            <mxPoint x="147.5" y="472" as="targetPoint" />
            <mxPoint x="322.5" y="472.02857142857147" as="sourcePoint" />
          </mxGeometry>
        </mxCell>
        <mxCell id="FWICxyB5qI8mHUNmKvt1-5" value="&lt;font style=&quot;font-size: 9px;&quot;&gt;Continue shopping, Cancel Order or Checkout&lt;/font&gt;" style="text;html=1;align=center;verticalAlign=middle;resizable=0;points=[];autosize=1;strokeColor=none;fillColor=none;fontSize=9;" vertex="1" parent="B5JM20REGfs4NmhftQZL-108">
          <mxGeometry x="122.5" y="445" width="210" height="20" as="geometry" />
        </mxCell>
        <mxCell id="FWICxyB5qI8mHUNmKvt1-8" style="edgeStyle=orthogonalEdgeStyle;rounded=0;orthogonalLoop=1;jettySize=auto;html=1;curved=0;dashed=1;" edge="1" parent="B5JM20REGfs4NmhftQZL-108">
          <mxGeometry relative="1" as="geometry">
            <mxPoint x="332.5" y="384" as="targetPoint" />
            <mxPoint x="492.5" y="384" as="sourcePoint" />
          </mxGeometry>
        </mxCell>
        <mxCell id="FWICxyB5qI8mHUNmKvt1-9" value="Display Item Details" style="text;html=1;align=center;verticalAlign=middle;resizable=0;points=[];autosize=1;strokeColor=none;fillColor=none;fontSize=10;" vertex="1" parent="B5JM20REGfs4NmhftQZL-108">
          <mxGeometry x="362.5" y="352" width="110" height="30" as="geometry" />
        </mxCell>
        <mxCell id="FWICxyB5qI8mHUNmKvt1-3" value="Display Item List" style="text;html=1;align=center;verticalAlign=middle;resizable=0;points=[];autosize=1;strokeColor=none;fillColor=none;fontSize=10;" vertex="1" parent="B5JM20REGfs4NmhftQZL-108">
          <mxGeometry x="367.5" y="300" width="100" height="30" as="geometry" />
        </mxCell>
        <mxCell id="FWICxyB5qI8mHUNmKvt1-6" style="edgeStyle=orthogonalEdgeStyle;rounded=0;orthogonalLoop=1;jettySize=auto;html=1;curved=0;dashed=1;" edge="1" parent="B5JM20REGfs4NmhftQZL-108" source="B5JM20REGfs4NmhftQZL-92">
          <mxGeometry relative="1" as="geometry">
            <mxPoint x="142.5" y="624.9" as="targetPoint" />
            <mxPoint x="307.5" y="624.5" as="sourcePoint" />
            <Array as="points">
              <mxPoint x="233.5" y="624.5" />
            </Array>
          </mxGeometry>
        </mxCell>
        <mxCell id="FWICxyB5qI8mHUNmKvt1-7" value="Payment Form" style="text;html=1;align=center;verticalAlign=middle;resizable=0;points=[];autosize=1;strokeColor=none;fillColor=none;fontSize=10;" vertex="1" parent="B5JM20REGfs4NmhftQZL-108">
          <mxGeometry x="182.5" y="594.5" width="90" height="30" as="geometry" />
        </mxCell>
        <mxCell id="B5JM20REGfs4NmhftQZL-92" value="" style="html=1;points=[[0,0,0,0,5],[0,1,0,0,-5],[1,0,0,0,5],[1,1,0,0,-5]];perimeter=orthogonalPerimeter;outlineConnect=0;targetShapes=umlLifeline;portConstraint=eastwest;newEdgeStyle={&quot;curved&quot;:0,&quot;rounded&quot;:0};" parent="B5JM20REGfs4NmhftQZL-108" vertex="1">
          <mxGeometry x="322.5" y="574.5" width="10" height="60" as="geometry" />
        </mxCell>
        <mxCell id="B5JM20REGfs4NmhftQZL-71" value="" style="edgeStyle=orthogonalEdgeStyle;rounded=0;orthogonalLoop=1;jettySize=auto;html=1;curved=0;" parent="B5JM20REGfs4NmhftQZL-108" edge="1">
          <mxGeometry relative="1" as="geometry">
            <mxPoint x="132.5" y="584.5" as="sourcePoint" />
            <mxPoint x="322.5" y="585.5" as="targetPoint" />
            <Array as="points">
              <mxPoint x="132.5" y="585.5" />
            </Array>
          </mxGeometry>
        </mxCell>
        <mxCell id="FWICxyB5qI8mHUNmKvt1-12" value="Checkout" style="text;html=1;align=center;verticalAlign=middle;resizable=0;points=[];autosize=1;strokeColor=none;fillColor=none;" vertex="1" parent="B5JM20REGfs4NmhftQZL-108">
          <mxGeometry x="192.5" y="564.5" width="70" height="30" as="geometry" />
        </mxCell>
        <mxCell id="B5JM20REGfs4NmhftQZL-54" value="" style="html=1;points=[[0,0,0,0,5],[0,1,0,0,-5],[1,0,0,0,5],[1,1,0,0,-5]];perimeter=orthogonalPerimeter;outlineConnect=0;targetShapes=umlLifeline;portConstraint=eastwest;newEdgeStyle={&quot;curved&quot;:0,&quot;rounded&quot;:0};" parent="B5JM20REGfs4NmhftQZL-108" vertex="1">
          <mxGeometry x="322.5" y="654.5" width="10" height="40" as="geometry" />
        </mxCell>
        <mxCell id="B5JM20REGfs4NmhftQZL-88" value="" style="edgeStyle=orthogonalEdgeStyle;rounded=0;orthogonalLoop=1;jettySize=auto;html=1;curved=0;" parent="B5JM20REGfs4NmhftQZL-108" edge="1">
          <mxGeometry relative="1" as="geometry">
            <mxPoint x="132.5" y="663.5" as="sourcePoint" />
            <mxPoint x="322.5" y="664.5" as="targetPoint" />
            <Array as="points">
              <mxPoint x="132.5" y="664.5" />
            </Array>
          </mxGeometry>
        </mxCell>
        <mxCell id="FWICxyB5qI8mHUNmKvt1-13" value="Input Payment Information" style="text;html=1;align=center;verticalAlign=middle;resizable=0;points=[];autosize=1;strokeColor=none;fillColor=none;" vertex="1" parent="B5JM20REGfs4NmhftQZL-108">
          <mxGeometry x="147.5" y="642.5" width="160" height="30" as="geometry" />
        </mxCell>
        <mxCell id="B5JM20REGfs4NmhftQZL-93" value="" style="html=1;points=[[0,0,0,0,5],[0,1,0,0,-5],[1,0,0,0,5],[1,1,0,0,-5]];perimeter=orthogonalPerimeter;outlineConnect=0;targetShapes=umlLifeline;portConstraint=eastwest;newEdgeStyle={&quot;curved&quot;:0,&quot;rounded&quot;:0};" parent="B5JM20REGfs4NmhftQZL-108" vertex="1">
          <mxGeometry x="322.5" y="512" width="10" height="40" as="geometry" />
        </mxCell>
        <mxCell id="FWICxyB5qI8mHUNmKvt1-14" style="edgeStyle=orthogonalEdgeStyle;rounded=0;orthogonalLoop=1;jettySize=auto;html=1;curved=0;" edge="1" parent="B5JM20REGfs4NmhftQZL-108">
          <mxGeometry relative="1" as="geometry">
            <Array as="points">
              <mxPoint x="137.5" y="525" />
            </Array>
            <mxPoint x="137.5" y="524" as="sourcePoint" />
            <mxPoint x="317.5" y="525" as="targetPoint" />
          </mxGeometry>
        </mxCell>
        <mxCell id="FWICxyB5qI8mHUNmKvt1-15" value="Order Cncelation" style="text;html=1;align=center;verticalAlign=middle;resizable=0;points=[];autosize=1;strokeColor=none;fillColor=none;fontSize=10;" vertex="1" parent="B5JM20REGfs4NmhftQZL-108">
          <mxGeometry x="177.5" y="502" width="100" height="30" as="geometry" />
        </mxCell>
        <mxCell id="FWICxyB5qI8mHUNmKvt1-16" style="edgeStyle=orthogonalEdgeStyle;rounded=0;orthogonalLoop=1;jettySize=auto;html=1;curved=0;dashed=1;" edge="1" parent="B5JM20REGfs4NmhftQZL-108">
          <mxGeometry relative="1" as="geometry">
            <mxPoint x="332.5" y="542.4000000000001" as="targetPoint" />
            <mxPoint x="492.5" y="542" as="sourcePoint" />
            <Array as="points">
              <mxPoint x="423.5" y="542" />
            </Array>
          </mxGeometry>
        </mxCell>
        <mxCell id="FWICxyB5qI8mHUNmKvt1-17" value="Order Canceled" style="text;html=1;align=center;verticalAlign=middle;resizable=0;points=[];autosize=1;strokeColor=none;fillColor=none;fontSize=10;" vertex="1" parent="B5JM20REGfs4NmhftQZL-108">
          <mxGeometry x="362.5" y="517" width="90" height="30" as="geometry" />
        </mxCell>
        <mxCell id="B5JM20REGfs4NmhftQZL-96" value="" style="edgeStyle=orthogonalEdgeStyle;rounded=0;orthogonalLoop=1;jettySize=auto;html=1;curved=0;" parent="B5JM20REGfs4NmhftQZL-108" edge="1">
          <mxGeometry relative="1" as="geometry">
            <mxPoint x="332.5" y="516.5" as="sourcePoint" />
            <mxPoint x="482.5" y="518" as="targetPoint" />
            <Array as="points">
              <mxPoint x="332.5" y="517.5" />
            </Array>
          </mxGeometry>
        </mxCell>
        <mxCell id="FWICxyB5qI8mHUNmKvt1-18" value="Order Cancelation Request" style="text;html=1;align=center;verticalAlign=middle;resizable=0;points=[];autosize=1;strokeColor=none;fillColor=none;" vertex="1" parent="B5JM20REGfs4NmhftQZL-108">
          <mxGeometry x="322.5" y="492" width="170" height="30" as="geometry" />
        </mxCell>
        <mxCell id="FWICxyB5qI8mHUNmKvt1-19" style="edgeStyle=orthogonalEdgeStyle;rounded=0;orthogonalLoop=1;jettySize=auto;html=1;curved=0;dashed=1;" edge="1" parent="B5JM20REGfs4NmhftQZL-108">
          <mxGeometry relative="1" as="geometry">
            <mxPoint x="152.5" y="547.4000000000001" as="targetPoint" />
            <mxPoint x="312.5" y="547" as="sourcePoint" />
            <Array as="points">
              <mxPoint x="243.5" y="547" />
            </Array>
          </mxGeometry>
        </mxCell>
        <mxCell id="FWICxyB5qI8mHUNmKvt1-20" value="Order Canceled" style="text;html=1;align=center;verticalAlign=middle;resizable=0;points=[];autosize=1;strokeColor=none;fillColor=none;fontSize=10;" vertex="1" parent="B5JM20REGfs4NmhftQZL-108">
          <mxGeometry x="182.5" y="522" width="90" height="30" as="geometry" />
        </mxCell>
        <mxCell id="FWICxyB5qI8mHUNmKvt1-21" value="" style="edgeStyle=orthogonalEdgeStyle;rounded=0;orthogonalLoop=1;jettySize=auto;html=1;curved=0;" edge="1" parent="B5JM20REGfs4NmhftQZL-108">
          <mxGeometry relative="1" as="geometry">
            <mxPoint x="332.5" y="663.5" as="sourcePoint" />
            <mxPoint x="482.5" y="664" as="targetPoint" />
            <Array as="points">
              <mxPoint x="332.5" y="664.5" />
            </Array>
          </mxGeometry>
        </mxCell>
        <mxCell id="FWICxyB5qI8mHUNmKvt1-22" value="Process Pyment" style="text;html=1;align=center;verticalAlign=middle;resizable=0;points=[];autosize=1;strokeColor=none;fillColor=none;" vertex="1" parent="B5JM20REGfs4NmhftQZL-108">
          <mxGeometry x="352.5" y="642.5" width="110" height="30" as="geometry" />
        </mxCell>
        <mxCell id="FWICxyB5qI8mHUNmKvt1-23" style="edgeStyle=orthogonalEdgeStyle;rounded=0;orthogonalLoop=1;jettySize=auto;html=1;curved=0;dashed=1;" edge="1" parent="B5JM20REGfs4NmhftQZL-108">
          <mxGeometry relative="1" as="geometry">
            <mxPoint x="337.5" y="684.9000000000001" as="targetPoint" />
            <mxPoint x="497.5" y="684.5" as="sourcePoint" />
            <Array as="points">
              <mxPoint x="428.5" y="684.5" />
            </Array>
          </mxGeometry>
        </mxCell>
        <mxCell id="FWICxyB5qI8mHUNmKvt1-24" value="Generate Order" style="text;html=1;align=center;verticalAlign=middle;resizable=0;points=[];autosize=1;strokeColor=none;fillColor=none;fontSize=10;" vertex="1" parent="B5JM20REGfs4NmhftQZL-108">
          <mxGeometry x="367.5" y="659.5" width="90" height="30" as="geometry" />
        </mxCell>
        <mxCell id="FWICxyB5qI8mHUNmKvt1-25" style="edgeStyle=orthogonalEdgeStyle;rounded=0;orthogonalLoop=1;jettySize=auto;html=1;curved=0;dashed=1;" edge="1" parent="B5JM20REGfs4NmhftQZL-108">
          <mxGeometry relative="1" as="geometry">
            <mxPoint x="152.5" y="742.4000000000001" as="targetPoint" />
            <mxPoint x="312.5" y="742" as="sourcePoint" />
            <Array as="points">
              <mxPoint x="243.5" y="742" />
            </Array>
          </mxGeometry>
        </mxCell>
        <mxCell id="FWICxyB5qI8mHUNmKvt1-26" value="Payment Completed" style="text;html=1;align=center;verticalAlign=middle;resizable=0;points=[];autosize=1;strokeColor=none;fillColor=none;" vertex="1" parent="B5JM20REGfs4NmhftQZL-108">
          <mxGeometry x="177.5" y="710" width="130" height="30" as="geometry" />
        </mxCell>
        <mxCell id="FWICxyB5qI8mHUNmKvt1-2" value="Select Item" style="text;html=1;align=center;verticalAlign=middle;resizable=0;points=[];autosize=1;strokeColor=none;fillColor=none;fontSize=10;" vertex="1" parent="B5JM20REGfs4NmhftQZL-108">
          <mxGeometry x="197.5" y="330" width="70" height="30" as="geometry" />
        </mxCell>
        <mxCell id="FWICxyB5qI8mHUNmKvt1-27" value="" style="html=1;verticalAlign=bottom;endArrow=block;curved=0;rounded=0;exitX=1;exitY=0;exitDx=0;exitDy=5;exitPerimeter=0;fontSize=10;" edge="1" parent="B5JM20REGfs4NmhftQZL-108">
          <mxGeometry x="-0.0588" y="77" width="80" relative="1" as="geometry">
            <mxPoint x="130" y="172" as="sourcePoint" />
            <mxPoint x="315.5" y="172" as="targetPoint" />
            <mxPoint as="offset" />
          </mxGeometry>
        </mxCell>
        <mxCell id="FWICxyB5qI8mHUNmKvt1-28" value="Registration Request" style="text;html=1;align=center;verticalAlign=middle;resizable=0;points=[];autosize=1;strokeColor=none;fillColor=none;fontSize=10;" vertex="1" parent="B5JM20REGfs4NmhftQZL-108">
          <mxGeometry x="165" y="150" width="120" height="30" as="geometry" />
        </mxCell>
        <mxCell id="FWICxyB5qI8mHUNmKvt1-30" value="" style="html=1;verticalAlign=bottom;endArrow=block;curved=0;rounded=0;exitX=1;exitY=0;exitDx=0;exitDy=5;exitPerimeter=0;fontSize=10;" edge="1" parent="B5JM20REGfs4NmhftQZL-108">
          <mxGeometry x="-0.0588" y="77" width="80" relative="1" as="geometry">
            <mxPoint x="332.5" y="172" as="sourcePoint" />
            <mxPoint x="490" y="172" as="targetPoint" />
            <mxPoint as="offset" />
          </mxGeometry>
        </mxCell>
        <mxCell id="FWICxyB5qI8mHUNmKvt1-31" value="Verify&amp;nbsp; Request" style="text;html=1;align=center;verticalAlign=middle;resizable=0;points=[];autosize=1;strokeColor=none;fillColor=none;fontSize=10;" vertex="1" parent="B5JM20REGfs4NmhftQZL-108">
          <mxGeometry x="367.5" y="150" width="90" height="30" as="geometry" />
        </mxCell>
        <mxCell id="FWICxyB5qI8mHUNmKvt1-32" style="edgeStyle=orthogonalEdgeStyle;rounded=0;orthogonalLoop=1;jettySize=auto;html=1;curved=0;dashed=1;" edge="1" parent="B5JM20REGfs4NmhftQZL-108">
          <mxGeometry relative="1" as="geometry">
            <mxPoint x="332.5" y="222" as="targetPoint" />
            <mxPoint x="492.5" y="222" as="sourcePoint" />
          </mxGeometry>
        </mxCell>
        <mxCell id="FWICxyB5qI8mHUNmKvt1-33" value="Register Account" style="text;html=1;align=center;verticalAlign=middle;resizable=0;points=[];autosize=1;strokeColor=none;fillColor=none;fontSize=10;" vertex="1" parent="B5JM20REGfs4NmhftQZL-108">
          <mxGeometry x="367.5" y="190" width="100" height="30" as="geometry" />
        </mxCell>
        <mxCell id="FWICxyB5qI8mHUNmKvt1-34" style="edgeStyle=orthogonalEdgeStyle;rounded=0;orthogonalLoop=1;jettySize=auto;html=1;curved=0;dashed=1;" edge="1" parent="B5JM20REGfs4NmhftQZL-108">
          <mxGeometry relative="1" as="geometry">
            <mxPoint x="147.5" y="232" as="targetPoint" />
            <mxPoint x="307.5" y="232" as="sourcePoint" />
          </mxGeometry>
        </mxCell>
        <mxCell id="FWICxyB5qI8mHUNmKvt1-35" value="Account Registered" style="text;html=1;align=center;verticalAlign=middle;resizable=0;points=[];autosize=1;strokeColor=none;fillColor=none;fontSize=10;" vertex="1" parent="B5JM20REGfs4NmhftQZL-108">
          <mxGeometry x="177.5" y="200" width="110" height="30" as="geometry" />
        </mxCell>
      </root>
    </mxGraphModel>
  </diagram>
</mxfile>
